<svg xmlns="http://www.w3.org/2000/svg" width="128" height="128"><path d="M58.345 3.793c-1.47 0-2.773.971-3.2 2.37l-3.462 11.494a48 48 0 0 0-11.735 4.858L29.374 16.85c-1.304-.688-2.893-.474-3.936.592l-8.013 7.987a3.38 3.38 0 0 0-.593 3.958l5.69 10.546a48 48 0 0 0-4.86 11.73l-11.499 3.46a3.33 3.33 0 0 0-2.37 3.2v11.328c0 1.47.972 2.773 2.37 3.2l11.499 3.46a48.3 48.3 0 0 0 4.86 11.73l-5.666 10.57a3.38 3.38 0 0 0 .593 3.958l8.013 8.01a3.35 3.35 0 0 0 3.936.593l10.573-5.664a48 48 0 0 0 11.736 4.858l3.461 11.47a3.33 3.33 0 0 0 3.201 2.37h11.333c1.47 0 2.774-.971 3.2-2.37l3.462-11.47a48.3 48.3 0 0 0 11.735-4.858l10.574 5.664a3.38 3.38 0 0 0 3.96-.593l8.013-8.01a3.38 3.38 0 0 0 .593-3.958l-5.738-10.57a47.5 47.5 0 0 0 4.86-11.73l11.475-3.46a3.33 3.33 0 0 0 2.371-3.2V58.324a3.31 3.31 0 0 0-2.347-3.2l-11.498-3.46a48.3 48.3 0 0 0-4.86-11.73l5.665-10.57a3.38 3.38 0 0 0-.592-3.958l-8.013-8.01a3.38 3.38 0 0 0-3.96-.593l-10.526 5.712a48 48 0 0 0-11.736-4.858L72.878 6.162a3.33 3.33 0 0 0-3.2-2.37zm5.667 31.187c16.003 0 29.018 13.011 29.018 29.008S80.015 92.996 64.012 92.996s-29.02-13.01-29.02-29.008S48.01 34.98 64.013 34.98z" style="display:inline;fill:#e6e6e6;fill-opacity:1;stroke:#000;stroke-width:7.58518505;stroke-miterlimit:4;stroke-dasharray:none;stroke-opacity:1"/></svg>