<svg xmlns="http://www.w3.org/2000/svg" xmlns:xlink="http://www.w3.org/1999/xlink" width="128" height="128"><defs><linearGradient id="c"><stop offset="0" style="stop-color:#fff;stop-opacity:.20472442"/><stop offset="1" style="stop-color:red;stop-opacity:1"/></linearGradient><linearGradient id="b"><stop offset="0" style="stop-color:#fff;stop-opacity:0"/><stop offset="1" style="stop-color:#ff0;stop-opacity:1"/></linearGradient><linearGradient id="a"><stop offset="0" style="stop-color:#fff;stop-opacity:1"/><stop offset="1" style="stop-color:#06f;stop-opacity:1"/></linearGradient><linearGradient xlink:href="#c" id="f" x1="59.5" x2="94.5" y1="52.25" y2="91.5" gradientUnits="userSpaceOnUse"/><radialGradient xlink:href="#a" id="d" cx="53.75" cy="47.75" r="59" fx="53.75" fy="47.75" gradientUnits="userSpaceOnUse"/><radialGradient xlink:href="#b" id="e" cx="30.491" cy="62.546" r="59" fx="30.491" fy="62.546" gradientTransform="matrix(1.51271 .00424 -.0028 1 -20.95 -.174)" gradientUnits="userSpaceOnUse"/></defs><path d="M57.886 7.083 7.319 47.416l18.322 58.26 33.955 14.235S57.642 88.277 76.94 87.486s36.154 3.427 36.154 3.427 16.122-41.388 2.198-60.105S57.886 7.083 57.886 7.083Z" style="fill:url(#d);fill-opacity:1;stroke:#000;stroke-width:4.00008583;stroke-linecap:butt;stroke-linejoin:miter;stroke-miterlimit:4;stroke-dasharray:none;stroke-opacity:1"/><path d="M57.886 7.083 7.319 47.416l18.322 58.26 33.955 14.235S57.642 88.277 76.94 87.486s36.154 3.427 36.154 3.427 16.122-41.388 2.198-60.105S57.886 7.083 57.886 7.083Z" style="fill:url(#e);fill-opacity:1;stroke:#000;stroke-width:4.00008583;stroke-linecap:butt;stroke-linejoin:miter;stroke-miterlimit:4;stroke-dasharray:none;stroke-opacity:1"/><path d="M57.886 7.083 7.319 47.416l18.322 58.26 33.955 14.235S57.642 88.277 76.94 87.486s36.154 3.427 36.154 3.427 16.122-41.388 2.198-60.105S57.886 7.083 57.886 7.083Z" style="fill:url(#f);fill-opacity:1;stroke:#000;stroke-width:4.00008583;stroke-linecap:butt;stroke-linejoin:miter;stroke-miterlimit:4;stroke-dasharray:none;stroke-opacity:1"/><g style="fill:#fd5"><g style="fill:#fd5;stroke:#000"><path d="m70.064 422.35 374.27-374.26 107.58 107.58-374.26 374.27-129.56 21.97Z" style="fill:#fd5;stroke-width:30" transform="matrix(.11043 0 0 .11043 59.712 55.032)"/><path d="m70.569 417.81 110.61 110.61M491.47 108.37 124.78 475.05M54.222 507.26l40.975 39.546" style="fill:#fd5;stroke-width:25" transform="matrix(.11043 0 0 .11043 59.712 55.032)"/></g></g></svg>