<svg xmlns="http://www.w3.org/2000/svg" xmlns:xlink="http://www.w3.org/1999/xlink" width="128" height="128"><defs><radialGradient xlink:href="#a" id="b" cx="64" cy="86" r="62.779" fx="64" fy="86" gradientTransform="matrix(-1 0 0 -1 128 128)" gradientUnits="userSpaceOnUse"/><linearGradient id="a"><stop offset="0" style="stop-color:#fff;stop-opacity:1"/><stop offset="1" style="stop-color:#b3b3b3;stop-opacity:1"/></linearGradient></defs><path d="M64 5 5 64h35v59h46V64h37z" style="fill:url(#b);fill-opacity:1;stroke:#000;stroke-width:7.55906;stroke-linecap:butt;stroke-linejoin:round;stroke-miterlimit:4;stroke-dasharray:none;stroke-opacity:1"/><g style="display:inline"><path d="M84 98.641a40 40 0 0 1-40 0A40 40 0 0 1 24 64" style="opacity:1;fill:none;fill-opacity:1;stroke:#000;stroke-width:28;stroke-linecap:round;stroke-linejoin:round;stroke-miterlimit:4;stroke-dasharray:none;stroke-dashoffset:11.3372;stroke-opacity:1" transform="matrix(.59269 0 0 .59269 51.4 58.303)"/><path d="M0 64h48L24 38Z" style="fill:#000;stroke:#000;stroke-width:0;stroke-linecap:butt;stroke-linejoin:miter;stroke-miterlimit:4;stroke-dasharray:none;stroke-opacity:1" transform="matrix(.59269 0 0 .59269 51.4 58.303)"/><path d="M84 98.641a40 40 0 0 1-41.492-.905 40 40 0 0 1-18.356-37.222" style="display:inline;opacity:1;fill:none;fill-opacity:1;stroke:#cf0;stroke-width:20;stroke-linecap:round;stroke-linejoin:round;stroke-miterlimit:4;stroke-dasharray:none;stroke-dashoffset:11.3372;stroke-opacity:1" transform="matrix(.59269 0 0 .59269 51.4 58.303)"/><path d="M7 61h34L24 43Z" style="display:inline;fill:#cf0;fill-opacity:1;stroke:#000;stroke-width:0;stroke-linecap:butt;stroke-linejoin:miter;stroke-miterlimit:4;stroke-dasharray:none;stroke-opacity:1" transform="matrix(.59269 0 0 .59269 51.4 58.303)"/></g><path d="M44 29.359a40 40 0 0 1 40 0A40 40 0 0 1 104 64" style="display:inline;opacity:1;fill:none;fill-opacity:1;stroke:#000;stroke-width:28;stroke-linecap:round;stroke-linejoin:round;stroke-miterlimit:4;stroke-dasharray:none;stroke-dashoffset:11.3372;stroke-opacity:1" transform="matrix(.59269 0 0 .59269 51.4 58.303)"/><path d="M80 64h48l-24 26z" style="display:inline;fill:#000;stroke:#000;stroke-width:0;stroke-linecap:butt;stroke-linejoin:miter;stroke-miterlimit:4;stroke-dasharray:none;stroke-opacity:1" transform="matrix(.59269 0 0 .59269 51.4 58.303)"/><path d="M44 29.359a40 40 0 0 1 41.492.905 40 40 0 0 1 18.356 37.222" style="display:inline;opacity:1;fill:none;fill-opacity:1;stroke:#cf0;stroke-width:19.9998;stroke-linecap:round;stroke-linejoin:round;stroke-miterlimit:4;stroke-dasharray:none;stroke-dashoffset:11.3372;stroke-opacity:1" transform="matrix(.59269 0 0 .59269 51.4 58.303)"/><path d="M87 67h34l-17 18z" style="display:inline;fill:#cf0;fill-opacity:1;stroke:#000;stroke-width:0;stroke-linecap:butt;stroke-linejoin:miter;stroke-miterlimit:4;stroke-dasharray:none;stroke-opacity:1" transform="matrix(.59269 0 0 .59269 51.4 58.303)"/></svg>