<svg xmlns="http://www.w3.org/2000/svg" xmlns:xlink="http://www.w3.org/1999/xlink" width="128" height="128"><defs><radialGradient xlink:href="#b" id="c" cx="149.105" cy="8.99" r="88.562" fx="149.105" fy="8.99" gradientTransform="matrix(1 0 0 .94812 0 .466)" gradientUnits="userSpaceOnUse"/><radialGradient xlink:href="#b" id="e" cx="138.914" cy="133.574" r="77.726" fx="138.914" fy="133.574" gradientTransform="matrix(1 0 0 .94744 0 7.021)" gradientUnits="userSpaceOnUse"/><radialGradient xlink:href="#b" id="g" cx="35.301" cy="157.353" r="104.248" fx="35.301" fy="157.353" gradientTransform="matrix(1 0 0 .94808 0 8.17)" gradientUnits="userSpaceOnUse"/><radialGradient xlink:href="#b" id="i" cx="20.534" cy="-115.938" r="88.562" fx="20.534" fy="-115.938" gradientTransform="matrix(1 0 0 .94812 0 -6.015)" gradientUnits="userSpaceOnUse"/><radialGradient xlink:href="#b" id="k" cx="10.342" cy="8.645" r="77.726" fx="10.342" fy="8.645" gradientTransform="matrix(1 0 0 .94744 0 .454)" gradientUnits="userSpaceOnUse"/><radialGradient xlink:href="#b" id="m" cx="-93.27" cy="32.424" r="104.248" fx="-93.27" fy="32.424" gradientTransform="matrix(1 0 0 .94808 0 1.683)" gradientUnits="userSpaceOnUse"/><clipPath id="n" clipPathUnits="userSpaceOnUse"><path d="M.439.368h128v128h-128z" style="display:inline;opacity:1;fill:#80b3ff;fill-rule:nonzero;stroke:none;stroke-width:0;stroke-miterlimit:4;stroke-dasharray:none;stroke-opacity:1" transform="scale(-1)"/></clipPath><clipPath id="l" clipPathUnits="userSpaceOnUse"><path d="M.439.368h128v128h-128z" style="display:inline;opacity:1;fill:#80b3ff;fill-rule:nonzero;stroke:none;stroke-width:0;stroke-miterlimit:4;stroke-dasharray:none;stroke-opacity:1" transform="scale(-1)"/></clipPath><clipPath id="j" clipPathUnits="userSpaceOnUse"><path d="M.439.368h128v128h-128z" style="display:inline;opacity:1;fill:#80b3ff;fill-rule:nonzero;stroke:none;stroke-width:0;stroke-miterlimit:4;stroke-dasharray:none;stroke-opacity:1" transform="scale(-1)"/></clipPath><clipPath id="h" clipPathUnits="userSpaceOnUse"><path d="M.439.368h128v128h-128z" style="display:inline;opacity:1;fill:#80b3ff;fill-rule:nonzero;stroke:none;stroke-width:0;stroke-miterlimit:4;stroke-dasharray:none;stroke-opacity:1"/></clipPath><clipPath id="f" clipPathUnits="userSpaceOnUse"><path d="M.439.368h128v128h-128z" style="display:inline;opacity:1;fill:#80b3ff;fill-rule:nonzero;stroke:none;stroke-width:0;stroke-miterlimit:4;stroke-dasharray:none;stroke-opacity:1"/></clipPath><clipPath id="d" clipPathUnits="userSpaceOnUse"><path d="M.439.368h128v128h-128z" style="display:inline;opacity:1;fill:#80b3ff;fill-rule:nonzero;stroke:none;stroke-width:0;stroke-miterlimit:4;stroke-dasharray:none;stroke-opacity:1"/></clipPath><linearGradient id="b"><stop offset="0" style="stop-color:#ff8080;stop-opacity:1"/><stop offset="1" style="stop-color:maroon;stop-opacity:1"/></linearGradient><filter id="o" style="color-interpolation-filters:sRGB"><feFlood flood-color="#000" flood-opacity=".651" result="flood"/><feComposite in="flood" in2="SourceGraphic" operator="in" result="composite1"/><feGaussianBlur in="composite1" result="blur" stdDeviation="10"/><feOffset dx="6" dy="6" result="offset"/><feComposite in="SourceGraphic" in2="offset" result="composite2"/></filter></defs><g style="display:inline"><path d="m64.286 62.464 54.678-66.747 54.678-66.747 30.465 80.726 30.466 80.726-85.144-13.979Z" clip-path="url(#d)" style="opacity:1;fill:url(#c);fill-opacity:1;fill-rule:nonzero;stroke:#000;stroke-width:4;stroke-miterlimit:4;stroke-dasharray:none;stroke-opacity:1"/><path d="m64.286 62.464 74.306 12.1L212.9 86.661l-47.631 58.302-47.632 58.302-26.675-70.4z" clip-path="url(#f)" style="opacity:1;fill:url(#e);fill-opacity:1;fill-rule:nonzero;stroke:#000;stroke-width:4;stroke-miterlimit:4;stroke-dasharray:none;stroke-opacity:1"/><path d="m64.286 62.464 36.084 95.595 36.085 95.595-100.83-16.547-100.83-16.547L-.46 141.512Z" clip-path="url(#h)" style="opacity:1;fill:url(#g);fill-opacity:1;fill-rule:nonzero;stroke:#000;stroke-width:4;stroke-miterlimit:4;stroke-dasharray:none;stroke-opacity:1"/><path d="m-64.286-62.464 54.678-66.747 54.678-66.747 30.466 80.726L106-34.506l-85.143-13.98z" clip-path="url(#j)" style="display:inline;opacity:1;fill:url(#i);fill-opacity:1;fill-rule:nonzero;stroke:#000;stroke-width:4;stroke-miterlimit:4;stroke-dasharray:none;stroke-opacity:1" transform="scale(-1)"/><path d="m-64.286-62.464 74.307 12.099 74.307 12.099-47.632 58.302-47.631 58.302L-37.61 7.937z" clip-path="url(#l)" style="display:inline;opacity:1;fill:url(#k);fill-opacity:1;fill-rule:nonzero;stroke:#000;stroke-width:4;stroke-miterlimit:4;stroke-dasharray:none;stroke-opacity:1" transform="scale(-1)"/><path d="M-64.286-62.464-28.2 33.13l36.085 95.595-100.83-16.547-100.83-16.548 64.745-79.047Z" clip-path="url(#n)" style="display:inline;opacity:1;fill:url(#m);fill-opacity:1;fill-rule:nonzero;stroke:#000;stroke-width:4;stroke-miterlimit:4;stroke-dasharray:none;stroke-opacity:1" transform="scale(-1)"/></g><g style="display:inline"><path d="M79.667 1.667h16.667v16.667H79.667z" style="fill:#fff;fill-opacity:1;stroke:#000;stroke-width:3.33333349;stroke-miterlimit:4;stroke-dasharray:none;stroke-opacity:1;filter:url(#o)" transform="matrix(1.5 0 0 1.5 -67 48)"/></g></svg>