<svg xmlns="http://www.w3.org/2000/svg" xmlns:xlink="http://www.w3.org/1999/xlink" width="128" height="128"><defs><linearGradient id="c"><stop offset="0" style="stop-color:#fff;stop-opacity:1"/><stop offset="1" style="stop-color:#2a7fff;stop-opacity:1"/></linearGradient><linearGradient id="b"><stop offset="0" style="stop-color:#000;stop-opacity:1"/><stop offset="1" style="stop-color:#000;stop-opacity:0"/></linearGradient><linearGradient xlink:href="#b" id="e" x1="24.838" x2="68.536" y1="76.881" y2="77.588" gradientUnits="userSpaceOnUse"/><linearGradient xlink:href="#c" id="d" x1="24.838" x2="68.536" y1="76.881" y2="77.588" gradientUnits="userSpaceOnUse"/></defs><path d="M14.883 27.566v.026H14.7a8 8 0 0 0 .166 1.61l-.683 72.775 2.5.023H14c0 3.465 1.836 6.59 4.59 9.11s6.487 4.603 10.982 6.343C38.563 120.933 50.653 123 64 123s25.437-2.066 34.428-5.547c4.495-1.74 8.229-3.824 10.982-6.344S114 105.465 114 102h-.184l.686-72.645c.126-.568.2-1.154.2-1.763h-2.585l-2.6-.026v.026h-.181c0 1.185-1.1 2.98-3.877 4.935-2.778 1.955-6.92 3.872-11.623 5.477-9.405 3.209-21.112 5.22-29.135 5.22s-19.731-2.011-29.137-5.22c-4.702-1.605-8.845-3.522-11.623-5.477-2.777-1.954-3.875-3.75-3.875-4.935h-2.584z" style="color:#000;font-style:normal;font-variant:normal;font-weight:400;font-stretch:normal;font-size:medium;line-height:normal;font-family:sans-serif;font-variant-ligatures:normal;font-variant-position:normal;font-variant-caps:normal;font-variant-numeric:normal;font-variant-alternates:normal;font-feature-settings:normal;text-indent:0;text-align:start;text-decoration:none;text-decoration-line:none;text-decoration-style:solid;text-decoration-color:#000;letter-spacing:normal;word-spacing:normal;text-transform:none;writing-mode:lr-tb;direction:ltr;text-orientation:mixed;dominant-baseline:auto;baseline-shift:baseline;text-anchor:start;white-space:normal;shape-padding:0;clip-rule:nonzero;display:inline;overflow:visible;visibility:visible;opacity:1;isolation:auto;mix-blend-mode:normal;color-interpolation:sRGB;color-interpolation-filters:linearRGB;solid-color:#000;solid-opacity:1;vector-effect:none;fill:#000;fill-opacity:1;fill-rule:nonzero;stroke:none;stroke-width:5.36516094;stroke-linecap:butt;stroke-linejoin:round;stroke-miterlimit:4;stroke-dasharray:none;stroke-dashoffset:0;stroke-opacity:1;paint-order:normal;color-rendering:auto;image-rendering:auto;shape-rendering:auto;text-rendering:auto"/><path d="M19.803 36.127c.342.267.69.533 1.05.787 3.452 2.429 7.966 4.458 12.979 6.168 10.025 3.42 21.98 5.508 30.87 5.508s20.841-2.087 30.866-5.508c5.013-1.71 9.527-3.74 12.979-6.168.305-.215.596-.442.889-.666l-.618 65.729 2.498.023h-2.681c0 1.593-.813 3.288-2.848 5.15s-5.23 3.727-9.297 5.301c-8.134 3.15-19.704 5.184-32.49 5.184s-24.356-2.035-32.49-5.184c-4.067-1.574-7.262-3.438-9.297-5.3-2.035-1.863-2.848-3.558-2.848-5.151h-.183z" style="color:#000;font-style:normal;font-variant:normal;font-weight:400;font-stretch:normal;font-size:medium;line-height:normal;font-family:sans-serif;font-variant-ligatures:normal;font-variant-position:normal;font-variant-caps:normal;font-variant-numeric:normal;font-variant-alternates:normal;font-feature-settings:normal;text-indent:0;text-align:start;text-decoration:none;text-decoration-line:none;text-decoration-style:solid;text-decoration-color:#000;letter-spacing:normal;word-spacing:normal;text-transform:none;writing-mode:lr-tb;direction:ltr;text-orientation:mixed;dominant-baseline:auto;baseline-shift:baseline;text-anchor:start;white-space:normal;shape-padding:0;clip-rule:nonzero;display:inline;overflow:visible;visibility:visible;opacity:1;isolation:auto;mix-blend-mode:normal;color-interpolation:sRGB;color-interpolation-filters:linearRGB;solid-color:#000;solid-opacity:1;vector-effect:none;fill:url(#d);fill-opacity:1;fill-rule:nonzero;stroke:url(#e);stroke-width:0;stroke-linecap:butt;stroke-linejoin:round;stroke-miterlimit:4;stroke-dasharray:none;stroke-dashoffset:0;stroke-opacity:1;paint-order:normal;color-rendering:auto;image-rendering:auto;shape-rendering:auto;text-rendering:auto"/><path d="M17.383 27.59c0-10.116 21.185-18.316 47.317-18.316s47.318 8.2 47.318 18.317" style="opacity:1;fill:#acf;fill-opacity:1;fill-rule:nonzero;stroke:#000;stroke-width:5.36516094;stroke-linecap:butt;stroke-linejoin:round;stroke-miterlimit:4;stroke-dasharray:none;stroke-dashoffset:0;stroke-opacity:1;paint-order:normal"/><path d="M112.018 27.59c0 10.117-30.405 18.318-47.318 18.318s-47.317-8.2-47.317-18.317" style="opacity:1;fill:#acf;fill-opacity:1;fill-rule:nonzero;stroke:#000;stroke-width:5.36516094;stroke-linecap:butt;stroke-linejoin:round;stroke-miterlimit:4;stroke-dasharray:none;stroke-dashoffset:0;stroke-opacity:1;paint-order:normal"/><g style="fill:#fd5"><g style="fill:#fd5;stroke:#000"><path d="m70.064 422.35 374.27-374.26 107.58 107.58-374.26 374.27-129.56 21.97Z" style="fill:#fd5;stroke-width:30" transform="matrix(.11043 0 0 .11043 54.712 55.032)"/><path d="m70.569 417.81 110.61 110.61M491.47 108.37 124.78 475.05M54.222 507.26l40.975 39.546" style="fill:#fd5;stroke-width:25" transform="matrix(.11043 0 0 .11043 54.712 55.032)"/></g></g></svg>