<svg xmlns="http://www.w3.org/2000/svg" xmlns:xlink="http://www.w3.org/1999/xlink" width="128" height="128"><defs><clipPath id="j" clipPathUnits="userSpaceOnUse"><path d="M5 5h118v118H5z" style="opacity:1;fill:red;fill-opacity:1;stroke:none;stroke-width:3.77952766;stroke-linecap:round;stroke-linejoin:round;stroke-miterlimit:4;stroke-dasharray:none;stroke-dashoffset:0;stroke-opacity:1"/></clipPath><clipPath id="i" clipPathUnits="userSpaceOnUse"><path d="M5 5h118v118H5z" style="opacity:1;fill:red;fill-opacity:1;stroke:none;stroke-width:3.77952766;stroke-linecap:round;stroke-linejoin:round;stroke-miterlimit:4;stroke-dasharray:none;stroke-dashoffset:0;stroke-opacity:1"/></clipPath><clipPath id="h" clipPathUnits="userSpaceOnUse"><path d="M5 5h118v118H5z" style="opacity:1;fill:red;fill-opacity:1;stroke:none;stroke-width:3.77952766;stroke-linecap:round;stroke-linejoin:round;stroke-miterlimit:4;stroke-dasharray:none;stroke-dashoffset:0;stroke-opacity:1"/></clipPath><clipPath id="g" clipPathUnits="userSpaceOnUse"><path d="M5 5h118v118H5z" style="opacity:1;fill:red;fill-opacity:1;stroke:none;stroke-width:3.77952766;stroke-linecap:round;stroke-linejoin:round;stroke-miterlimit:4;stroke-dasharray:none;stroke-dashoffset:0;stroke-opacity:1"/></clipPath><clipPath id="f" clipPathUnits="userSpaceOnUse"><path d="M5 5h118v118H5z" style="opacity:1;fill:red;fill-opacity:1;stroke:none;stroke-width:3.77952766;stroke-linecap:round;stroke-linejoin:round;stroke-miterlimit:4;stroke-dasharray:none;stroke-dashoffset:0;stroke-opacity:1"/></clipPath><clipPath id="e" clipPathUnits="userSpaceOnUse"><path d="M5 5h118v118H5z" style="opacity:1;fill:red;fill-opacity:1;stroke:none;stroke-width:3.77952766;stroke-linecap:round;stroke-linejoin:round;stroke-miterlimit:4;stroke-dasharray:none;stroke-dashoffset:0;stroke-opacity:1"/></clipPath><linearGradient id="b"><stop offset="0" style="stop-color:#fff;stop-opacity:1"/><stop offset="1" style="stop-color:#fff;stop-opacity:0"/></linearGradient><linearGradient id="a"><stop offset="0" style="stop-color:red;stop-opacity:1"/><stop offset="1" style="stop-color:#00f;stop-opacity:1"/></linearGradient><linearGradient xlink:href="#a" id="d" x1="5" x2="123" y1="5" y2="123" gradientUnits="userSpaceOnUse"/><radialGradient xlink:href="#b" id="c" cx="64" cy="64" r="59" fx="64" fy="64" gradientTransform="matrix(1 1 -1 1 64 -64)" gradientUnits="userSpaceOnUse"/></defs><path d="M5 5h118v118H5z" style="opacity:1;fill:url(#c);fill-opacity:1;stroke:none;stroke-width:0;stroke-linecap:square;stroke-linejoin:round;stroke-miterlimit:3.33333325;stroke-dasharray:none;stroke-dashoffset:11.33720303;stroke-opacity:1"/><g style="fill-opacity:1;fill:none;stroke:url(#d)"><path d="M6.916 34.443C21.658 38.127 8.723 50.64 31.106 52.8c32.38 3.124 18.666-18.218 57.574-18.012 30.298.161 31.54-29.122 32.415-27.878" clip-path="url(#e)" style="fill:none;stroke:url(#d);stroke-width:3.77906752;stroke-linecap:square;stroke-linejoin:miter;stroke-miterlimit:3.33333325;stroke-dasharray:none;stroke-opacity:1;stroke-dashoffset:11.33720345;fill-opacity:1"/><path d="M6.916 57.443C21.658 61.127 8.723 73.64 31.106 75.8c32.38 3.124 18.666-18.218 57.574-18.012 30.298.161 31.54-29.122 32.415-27.878" clip-path="url(#f)" style="fill:none;stroke:url(#d);stroke-width:3.77906752;stroke-linecap:square;stroke-linejoin:miter;stroke-miterlimit:3.33333325;stroke-dasharray:none;stroke-opacity:1;stroke-dashoffset:11.33720345;fill-opacity:1"/><path d="M6.916 84.443c14.742 3.684 1.807 16.197 24.19 18.356 32.38 3.124 18.666-18.218 57.574-18.012 30.298.161 31.54-29.122 32.415-27.878" clip-path="url(#g)" style="fill:none;stroke:url(#d);stroke-width:3.77906752;stroke-linecap:square;stroke-linejoin:miter;stroke-miterlimit:3.33333325;stroke-dasharray:none;stroke-opacity:1;stroke-dashoffset:11.33720345;fill-opacity:1"/><path d="M6.916 107.443c14.742 3.684 1.807 16.197 24.19 18.356 32.38 3.124 18.666-18.218 57.574-18.012 30.298.161 31.54-29.122 32.415-27.878" clip-path="url(#h)" style="fill:none;stroke:url(#d);stroke-width:3.77906752;stroke-linecap:square;stroke-linejoin:miter;stroke-miterlimit:3.33333325;stroke-dasharray:none;stroke-opacity:1;stroke-dashoffset:11.33720345;fill-opacity:1"/><path d="M6.916-10.557C21.658-6.873 8.723 5.64 31.106 7.8c32.38 3.124 18.666-18.218 57.574-18.012 30.298.161 31.54-29.122 32.415-27.878" clip-path="url(#i)" style="fill:none;stroke:url(#d);stroke-width:3.77906752;stroke-linecap:square;stroke-linejoin:miter;stroke-miterlimit:3.33333325;stroke-dasharray:none;stroke-opacity:1;stroke-dashoffset:11.33720345;fill-opacity:1"/><path d="M6.916 12.443C21.658 16.127 8.723 28.64 31.106 30.8c32.38 3.124 18.666-18.218 57.574-18.012 30.298.161 31.54-29.122 32.415-27.878" clip-path="url(#j)" style="fill:none;stroke:url(#d);stroke-width:3.77906752;stroke-linecap:square;stroke-linejoin:miter;stroke-miterlimit:3.33333325;stroke-dasharray:none;stroke-opacity:1;stroke-dashoffset:11.33720345;fill-opacity:1"/></g><g style="display:inline"><g style="fill:#fd5"><g style="fill:#fd5;stroke:#000"><path d="m70.064 422.35 374.27-374.26 107.58 107.58-374.26 374.27-129.56 21.97Z" style="fill:#fd5;stroke-width:30" transform="matrix(.11043 0 0 .11043 59.712 55.032)"/><path d="m70.569 417.81 110.61 110.61M491.47 108.37 124.78 475.05M54.222 507.26l40.975 39.546" style="fill:#fd5;stroke-width:25" transform="matrix(.11043 0 0 .11043 59.712 55.032)"/></g></g></g></svg>