<svg xmlns="http://www.w3.org/2000/svg" width="128" height="128"><path d="M1.897 106.115h20v20h-20zM106.108 106.119h20v20h-20zM33.843 32.314h20v20h-20zM81.59 38.839h20v20h-20z" style="fill:#fff;fill-opacity:1;stroke:#000;stroke-width:3.77952766;stroke-miterlimit:4;stroke-dasharray:none;stroke-opacity:1"/><path d="M1.912 1.912h20v20h-20z" style="fill:#fff;fill-opacity:1;stroke:#646464;stroke-width:3.77952766;stroke-miterlimit:4;stroke-dasharray:none;stroke-opacity:1;stroke-dashoffset:0;opacity:1"/><path d="M106.108 1.894h20v20h-20z" style="fill:#fff;fill-opacity:1;stroke:#646464;stroke-width:3.77952766;stroke-miterlimit:4;stroke-dasharray:none;stroke-opacity:1;opacity:1"/><path d="m16.672 104.69 22.646-51.702" style="fill:none;stroke:#000;stroke-width:3.77952756;stroke-linecap:butt;stroke-linejoin:miter;stroke-miterlimit:4;stroke-dasharray:none;stroke-opacity:1"/><path d="m54.25 43.5 27.5 6.75M95.25 59.25l19.25 46.5M106 117H22" style="fill:none;stroke:#000;stroke-width:3.77952756;stroke-linecap:butt;stroke-linejoin:miter;stroke-opacity:1;stroke-miterlimit:4;stroke-dasharray:none"/><path d="m11.25 106 .5-84M22.25 11.25 106 11M117 22l-.125 84.125" style="fill:none;stroke:#646464;stroke-width:1px;stroke-linecap:butt;stroke-linejoin:miter;stroke-opacity:1"/><path d="M23.947 109.525v-5.375h-2.375c-1.306 0-2.368-.085-2.359-.188.01-.103 4.88-11.269 10.825-24.812l10.809-24.625 7.487-.125 7.488-.125.068-4.148.069-4.148 11.806 2.906 11.807 2.905.068 4.551.068 4.55 7.05.067 7.048.067 8.904 21.5 8.905 21.5-3.71.069-3.708.069V114.9h-80.25z" style="opacity:1;fill:#96ffff;fill-opacity:1;stroke:#646464;stroke-width:.94488192;stroke-miterlimit:4;stroke-dasharray:none;stroke-dashoffset:0;stroke-opacity:1"/><path d="M11.959 83.765c.084-11.172.22-29.229.305-40.125l.152-19.813h11.44v-12h20.062c11.035 0 29.09-.075 40.125-.166l20.063-.166v12.332h12.25v40.125c0 22.069-.085 40.125-.188 40.125s-4.201-9.703-9.107-21.562l-8.919-21.563 2.732-.07 2.732-.071V36.827h-24v5.375c0 2.956-.068 5.375-.152 5.375-.151 0-20.895-5.054-22.66-5.521l-.938-.248v-11.48h-24v24h2.25c1.237 0 2.25.083 2.252.187.002.103-4.86 11.296-10.804 24.875l-10.808 24.687h-2.94z" style="opacity:1;fill:#ffff96;fill-opacity:1;stroke:#646464;stroke-width:.94488192;stroke-miterlimit:4;stroke-dasharray:none;stroke-dashoffset:0;stroke-opacity:1"/></svg>