<svg xmlns="http://www.w3.org/2000/svg" xmlns:xlink="http://www.w3.org/1999/xlink" width="128" height="128"><defs><linearGradient id="a"><stop offset="0" style="stop-color:#acf;stop-opacity:1"/><stop offset="1" style="stop-color:#06f;stop-opacity:1"/></linearGradient><linearGradient xlink:href="#a" id="b" x1="-84.344" x2="-91.513" y1="-5.388" y2="24.558" gradientTransform="matrix(3.21381 -.77632 .76944 3.24255 339.21 -36.22)" gradientUnits="userSpaceOnUse"/></defs><path d="M96.53 6.61c-1.77-.182-3.527.692-4.436 2.37l-38.71 71.46-24.888-19.966c-2.217-1.222-4.983-.436-6.194 1.8L11.14 76.733c-1.212 2.237-.397 5.027 1.82 6.249 0 0 45.443 37.867 45.5 37.895.519.287 1.062.43 1.614.501a4.54 4.54 0 0 0 4.579-2.338l52.205-96.373c1.212-2.236.397-5.026-1.82-6.249L98.288 7.143a4.6 4.6 0 0 0-1.759-.533" style="display:inline;overflow:visible;visibility:visible;fill:url(#b);fill-opacity:1;fill-rule:nonzero;stroke:#025;stroke-width:7.55905512;stroke-linecap:round;stroke-linejoin:round;stroke-miterlimit:4;stroke-dasharray:none;stroke-dashoffset:0;stroke-opacity:1;marker:none"/></svg>