<svg xmlns="http://www.w3.org/2000/svg" xmlns:xlink="http://www.w3.org/1999/xlink" width="128" height="128"><defs><radialGradient xlink:href="#a" id="b" cx="40" cy="88" r="35" fx="40" fy="88" gradientTransform="matrix(1.05714 .0164 -.01273 .96711 -1.166 4.238)" gradientUnits="userSpaceOnUse"/><linearGradient id="a"><stop offset="0" style="stop-color:#28170b;stop-opacity:1"/><stop offset="1" style="stop-color:#28170b;stop-opacity:.49606299"/></linearGradient></defs><path d="M15 5h98v118H15Z" style="opacity:1;fill:#f55;fill-opacity:1;stroke:#000;stroke-width:7.55905533;stroke-linecap:round;stroke-linejoin:round;stroke-miterlimit:4;stroke-dasharray:none;stroke-dashoffset:11.33720303;stroke-opacity:1"/><path d="M28 18h72v20H28Z" style="opacity:1;fill:#ffd5d5;fill-opacity:1;stroke:#000;stroke-width:6.04724407;stroke-linecap:round;stroke-linejoin:round;stroke-miterlimit:4;stroke-dasharray:none;stroke-dashoffset:11.33720303;stroke-opacity:1"/><path d="M28 48h18v14H28ZM82 48h18v14H82ZM55 48h18v14H55ZM28 71h18v14H28ZM82 71h18v38H82ZM55 71h18v14H55ZM28 95h18v14H28ZM55 95h18v14H55Z" style="opacity:1;fill:#fff;fill-opacity:1;stroke:#000;stroke-width:6.04724407;stroke-linecap:round;stroke-linejoin:round;stroke-miterlimit:4;stroke-dasharray:none;stroke-dashoffset:11.33720303;stroke-opacity:1"/><ellipse cx="40" cy="90" rx="37" ry="35" style="opacity:1;fill:url(#b);fill-opacity:1;stroke:none;stroke-width:0;stroke-linecap:round;stroke-linejoin:round;stroke-miterlimit:4;stroke-dasharray:none;stroke-dashoffset:11.33720303;stroke-opacity:1"/><path d="M24.203 61.556a4.999 4.66 0 0 0-1.74.624c-5.266 2.84-9.655 6.829-12.717 11.728C.05 89.422 5.685 109.54 22.329 118.577c16.645 9.037 38.23 3.785 47.925-11.729s4.061-35.631-12.583-44.668a5.04 4.697 0 1 0-5.087 8.11c11.976 6.502 15.945 20.655 8.969 31.817s-22.16 14.862-34.137 8.36c-11.924-6.475-15.955-20.553-9.103-31.693l.134-.124c2.188-3.5 5.342-6.456 9.103-8.485a4.999 4.66 0 0 0-3.346-8.61z" style="color:#000;font-style:normal;font-variant:normal;font-weight:400;font-stretch:normal;font-size:medium;line-height:normal;font-family:Sans;-inkscape-font-specification:Sans;text-indent:0;text-align:start;text-decoration:none;text-decoration-line:none;letter-spacing:normal;word-spacing:normal;text-transform:none;writing-mode:lr-tb;direction:ltr;baseline-shift:baseline;text-anchor:start;display:inline;overflow:visible;visibility:visible;fill:red;fill-opacity:1;stroke:#000;stroke-width:0;stroke-miterlimit:4;stroke-dasharray:none;stroke-opacity:1;marker:none"/><path d="M38.906 53.113a5 4.659 0 0 0-3.905 4.658v23.291a5 4.659 0 1 0 9.998 0v-23.29a5 4.659 0 0 0-6.093-4.659z" style="color:#000;font-style:normal;font-variant:normal;font-weight:400;font-stretch:normal;font-size:medium;line-height:normal;font-family:Sans;-inkscape-font-specification:Sans;text-indent:0;text-align:start;text-decoration:none;text-decoration-line:none;letter-spacing:normal;word-spacing:normal;text-transform:none;writing-mode:lr-tb;direction:ltr;baseline-shift:baseline;text-anchor:start;display:inline;overflow:visible;visibility:visible;fill:red;fill-opacity:1;stroke:#000;stroke-width:0;stroke-miterlimit:4;stroke-dasharray:none;stroke-opacity:1;marker:none"/></svg>