<svg xmlns="http://www.w3.org/2000/svg" width="128" height="128"><g style="display:inline"><path d="M84 98.641a40 40 0 0 1-40 0A40 40 0 0 1 24 64" style="opacity:1;fill:none;fill-opacity:1;stroke:#000;stroke-width:28;stroke-linecap:round;stroke-linejoin:round;stroke-miterlimit:4;stroke-dasharray:none;stroke-dashoffset:11.33720303;stroke-opacity:1"/><path d="M0 64h48L24 38Z" style="fill:#000;stroke:#000;stroke-width:0;stroke-linecap:butt;stroke-linejoin:miter;stroke-miterlimit:4;stroke-dasharray:none;stroke-opacity:1"/><path d="M84 98.641a40 40 0 0 1-41.492-.905 40 40 0 0 1-18.356-37.222" style="display:inline;opacity:1;fill:none;fill-opacity:1;stroke:#b3b3b3;stroke-width:20;stroke-linecap:round;stroke-linejoin:round;stroke-miterlimit:4;stroke-dasharray:none;stroke-dashoffset:11.33720303;stroke-opacity:1"/><path d="M7 61h34L24 43Z" style="display:inline;fill:#b3b3b3;stroke:#000;stroke-width:0;stroke-linecap:butt;stroke-linejoin:miter;stroke-miterlimit:4;stroke-dasharray:none;stroke-opacity:1"/></g><path d="M44 29.359a40 40 0 0 1 40 0A40 40 0 0 1 104 64" style="display:inline;opacity:1;fill:none;fill-opacity:1;stroke:#000;stroke-width:28;stroke-linecap:round;stroke-linejoin:round;stroke-miterlimit:4;stroke-dasharray:none;stroke-dashoffset:11.33720303;stroke-opacity:1"/><path d="M80 64h48l-24 26z" style="display:inline;fill:#000;stroke:#000;stroke-width:0;stroke-linecap:butt;stroke-linejoin:miter;stroke-miterlimit:4;stroke-dasharray:none;stroke-opacity:1"/><path d="M44 29.359a40 40 0 0 1 41.492.905 40 40 0 0 1 18.356 37.222" style="display:inline;opacity:1;fill:none;fill-opacity:1;stroke:#b3b3b3;stroke-width:20;stroke-linecap:round;stroke-linejoin:round;stroke-miterlimit:4;stroke-dasharray:none;stroke-dashoffset:11.33720303;stroke-opacity:1"/><path d="M87 67h34l-17 18z" style="display:inline;fill:#b3b3b3;stroke:#000;stroke-width:0;stroke-linecap:butt;stroke-linejoin:miter;stroke-miterlimit:4;stroke-dasharray:none;stroke-opacity:1"/></svg>