<svg xmlns="http://www.w3.org/2000/svg" xmlns:xlink="http://www.w3.org/1999/xlink" width="128" height="128"><defs><linearGradient id="b"><stop offset="0" style="stop-color:#e6e6e6;stop-opacity:1"/><stop offset="1" style="stop-color:#666;stop-opacity:1"/></linearGradient><linearGradient id="a"><stop offset="0" style="stop-color:#b3b3b3;stop-opacity:1"/><stop offset="1" style="stop-color:#4d4d4d;stop-opacity:1"/></linearGradient><linearGradient xlink:href="#a" id="c" x1="10.25" x2="90" y1="63.236" y2="63.986" gradientTransform="translate(-4 6)" gradientUnits="userSpaceOnUse"/><linearGradient xlink:href="#b" id="d" x1="10.25" x2="90" y1="63.236" y2="63.986" gradientTransform="matrix(0 .625 -.55556 0 129.222 41.75)" gradientUnits="userSpaceOnUse"/></defs><path d="M6 34v60c0 6.627 15.285 15 40 15s40-8.373 40-15V34" style="display:inline;opacity:1;fill:url(#c);fill-opacity:1;stroke:#000;stroke-width:4;stroke-linecap:round;stroke-linejoin:round;stroke-miterlimit:4;stroke-dasharray:none;stroke-dashoffset:11.33720303;stroke-opacity:1"/><path d="M46 19C21.285 19 6 27.373 6 34s15.285 15 40 15 40-8.373 40-15-15.285-15-40-15" style="display:inline;opacity:1;fill:gray;fill-opacity:1;stroke:#000;stroke-width:4;stroke-linecap:round;stroke-linejoin:round;stroke-miterlimit:4;stroke-dasharray:none;stroke-dashoffset:11.33720303;stroke-opacity:1"/><path d="M113.667 48H80.334C76.652 48 72 57.553 72 73s4.652 25 8.334 25h33.333" style="display:inline;opacity:1;fill:url(#d);fill-opacity:1;stroke:#000;stroke-width:4;stroke-linecap:round;stroke-linejoin:round;stroke-miterlimit:4;stroke-dasharray:none;stroke-dashoffset:11.33720303;stroke-opacity:1"/><path d="M122 73c0-15.447-4.651-25-8.333-25s-8.333 9.553-8.333 25 4.651 25 8.333 25S122 88.447 122 73" style="display:inline;opacity:1;fill:#666;fill-opacity:1;stroke:#000;stroke-width:4;stroke-linecap:round;stroke-linejoin:round;stroke-miterlimit:4;stroke-dasharray:none;stroke-dashoffset:11.33720303;stroke-opacity:1"/><path d="M48.797-13.922v110h110v-8l-34-71-34 40-34-71z" style="fill:#ff7f2a;stroke:none;stroke-width:1px;stroke-linecap:butt;stroke-linejoin:miter;stroke-opacity:1" transform="translate(-23.894 65.992)scale(.59272)"/><path d="m158.797 88.078-34-71-34 40-34-71" style="fill:none;stroke:#000;stroke-width:16;stroke-linecap:round;stroke-linejoin:round;stroke-miterlimit:4;stroke-dasharray:none;stroke-opacity:1" transform="translate(-23.894 65.992)scale(.59272)"/></svg>