<svg xmlns="http://www.w3.org/2000/svg" xmlns:xlink="http://www.w3.org/1999/xlink" width="128" height="128"><defs><radialGradient xlink:href="#a" id="c" cx="64" cy="64" r="59" fx="64" fy="64" gradientTransform="matrix(1 1 -1 1 64 -64)" gradientUnits="userSpaceOnUse"/><radialGradient xlink:href="#b" id="d" cx="57.75" cy="60.75" r="50" fx="57.75" fy="60.75" gradientUnits="userSpaceOnUse"/><linearGradient id="b"><stop offset="0" style="stop-color:#fff;stop-opacity:1"/><stop offset="1" style="stop-color:#59f;stop-opacity:1"/></linearGradient><linearGradient id="a"><stop offset="0" style="stop-color:#fff;stop-opacity:1"/><stop offset="1" style="stop-color:#fff;stop-opacity:0"/></linearGradient></defs><g style="display:inline"><path d="M5 5h118v118H5z" style="display:inline;opacity:1;fill:url(#c);fill-opacity:1;stroke:none;stroke-width:0;stroke-linecap:square;stroke-linejoin:round;stroke-miterlimit:3.33333325;stroke-dasharray:none;stroke-dashoffset:11.33720303;stroke-opacity:1"/><circle cx="73" cy="73" r="48.11" style="opacity:1;fill:url(#d);fill-opacity:1;stroke:#000;stroke-width:3.77952766;stroke-linecap:square;stroke-linejoin:round;stroke-miterlimit:4;stroke-dasharray:none;stroke-dashoffset:11.33720303;stroke-opacity:1"/><path d="m11.5 20.5 96.75-16-.75 121.25L12 115.5Z" style="fill:#fff;stroke:#000;stroke-width:3.77952756;stroke-linecap:butt;stroke-linejoin:miter;stroke-opacity:1;stroke-miterlimit:4;stroke-dasharray:none;fill-opacity:.38589212"/><ellipse cx="58" cy="73" rx="32.25" ry="38.25" style="opacity:1;fill:#f4d7d7;fill-opacity:1;stroke:#000;stroke-width:3.77952766;stroke-linecap:square;stroke-linejoin:round;stroke-miterlimit:4;stroke-dasharray:none;stroke-dashoffset:11.33720303;stroke-opacity:1"/><path d="m11.5 20.5 96 105.25M108.25 4.5 12 115.5" style="fill:none;stroke:#000;stroke-width:1px;stroke-linecap:butt;stroke-linejoin:miter;stroke-opacity:1"/></g><g style="fill:#fd5"><g style="fill:#fd5;stroke:#000"><path d="m70.064 422.35 374.27-374.26 107.58 107.58-374.26 374.27-129.56 21.97Z" style="fill:#fd5;stroke-width:30" transform="matrix(.11043 0 0 .11043 59.712 55.032)"/><path d="m70.569 417.81 110.61 110.61M491.47 108.37 124.78 475.05M54.222 507.26l40.975 39.546" style="fill:#fd5;stroke-width:25" transform="matrix(.11043 0 0 .11043 59.712 55.032)"/></g></g></svg>