<svg xmlns="http://www.w3.org/2000/svg" xmlns:xlink="http://www.w3.org/1999/xlink" width="128" height="128"><defs><marker id="d" orient="auto" refX="0" refY="0" style="overflow:visible"><path d="m0 0 5-5-17.5 5L5 5z" style="fill-rule:evenodd;stroke:red;stroke-width:1pt;stroke-opacity:1;fill:red;fill-opacity:1" transform="rotate(180 -.6 0)scale(.2)"/></marker><marker id="g" orient="auto" refX="0" refY="0" style="overflow:visible"><path d="m0 0 5-5-17.5 5L5 5z" style="fill-rule:evenodd;stroke:#00f;stroke-width:1pt;stroke-opacity:1;fill:#00f;fill-opacity:1" transform="rotate(180 -.6 0)scale(.2)"/></marker><marker id="c" orient="auto" refX="0" refY="0" style="overflow:visible"><path d="m0 0 5-5-17.5 5L5 5z" style="fill-rule:evenodd;stroke:#000;stroke-width:1pt;stroke-opacity:1;fill:red;fill-opacity:1" transform="rotate(180 -.6 0)scale(.2)"/></marker><marker id="f" orient="auto" refX="0" refY="0" style="overflow:visible"><path d="m0 0 5-5-17.5 5L5 5z" style="fill-rule:evenodd;stroke:#000;stroke-width:1pt;stroke-opacity:1;fill:#00f;fill-opacity:1" transform="rotate(180 -.6 0)scale(.2)"/></marker><radialGradient xlink:href="#b" id="e" cx="67.5" cy="63.269" r="60.889" fx="67.5" fy="63.269" gradientTransform="matrix(.93652 -.4207 .19233 .42814 -7.883 60.559)" gradientUnits="userSpaceOnUse"/><linearGradient id="b"><stop offset="0" style="stop-color:#faa;stop-opacity:1"/><stop offset="1" style="stop-color:maroon;stop-opacity:1"/></linearGradient></defs><path d="m70 63 22 45" style="fill:red;stroke:#000;stroke-width:9.44881916;stroke-linecap:round;stroke-linejoin:miter;stroke-miterlimit:4;stroke-dasharray:none;stroke-opacity:1;marker-end:url(#c)"/><path d="m70 63 22 45" style="fill:red;stroke:red;stroke-width:4.15748031;stroke-linecap:round;stroke-linejoin:miter;stroke-miterlimit:4;stroke-dasharray:none;stroke-opacity:1;marker-end:url(#d)"/><path d="m5 78 118-50-38 55Z" style="fill:url(#e);stroke:#000;stroke-width:3.77952756;stroke-linecap:round;stroke-linejoin:round;stroke-opacity:1;stroke-miterlimit:4;stroke-dasharray:none;fill-opacity:1"/><path d="M70 63 48 18" style="fill:#00f;stroke:#000;stroke-width:9.44881916;stroke-linecap:round;stroke-linejoin:miter;stroke-miterlimit:4;stroke-dasharray:none;stroke-opacity:1;marker-end:url(#f)"/><path d="M70 63 48 18" style="fill:#00f;stroke:#00f;stroke-width:4.15748031;stroke-linecap:round;stroke-linejoin:miter;stroke-miterlimit:4;stroke-dasharray:none;stroke-opacity:1;marker-end:url(#g)"/></svg>