<svg xmlns="http://www.w3.org/2000/svg" width="128" height="128"><g aria-label="?" style="font-style:normal;font-variant:normal;font-weight:700;font-stretch:normal;font-size:160.98008728px;line-height:0;font-family:Comfortaa;-inkscape-font-specification:&quot;Comfortaa Bold&quot;;letter-spacing:0;word-spacing:0;fill:#000;fill-opacity:1;stroke:none;stroke-width:1.67687583" transform="scale(1.00235 .99765)"><path d="M64.018-8.943C43.348-9.188 22.82 4.43 18.369 25.78c-.691 3.306-1.76 7.907-1.394 13.045.364 5.11 3.08 11.595 9.17 14.658 11.285 5.98 26.14-2.493 25.17-15.806l-.004-.043c-.513-6.462 4.295-13.155 10.53-13.32a7 7 0 0 0 1.346-.169c6.635-1.494 14.209 4.07 13.528 10.913a7 7 0 0 0-.03.923c.267 7.993-6.808 15.16-15.081 21.807a7 7 0 0 0-.493.434c-9.265 9-16.283 22.518-13.71 36.857a7 7 0 0 0 .138.62c.68 2.468 1.894 4.491 3.404 6.171-7.475 6.593-9.974 18.508-3.172 27.223 9.059 13.066 30.246 9.89 35.211-5.182 3.122-8.259.145-16.926-5.939-22.142a15.06 15.06 0 0 0 3.555-7.084 7 7 0 0 0 .132-1.022c.395-7.16 1.88-12.954 6.182-15.457a7 7 0 0 0 .676-.447c12.494-9.368 23.447-23.858 23.115-41.541 1.124-19.44-11.711-37.783-30.572-43.059-5.32-1.648-10.786-2.243-16.113-2.103M63.29 96.965c-.07 0-.128.03-.197.031-.084.005-.16-.021-.244-.016z" style="display:inline;stroke-width:1.67687583" transform="matrix(.9565 0 0 .87728 2.79 7.863)"/><path d="M64.18-2.775a6 6 0 0 1-.235.002C46.033-2.985 28.194 8.887 24.408 27.04v.004c-.717 3.43-1.566 7.313-1.28 11.342.237 3.308 2.166 7.762 5.79 9.586l.115.06c7.173 3.8 16.746-1.331 16.13-9.896l-.003-.014c-.78-9.827 5.955-19.695 16.516-19.977a1 1 0 0 0 .156-.019c5.41-1.218 10.682.38 14.66 3.486 3.979 3.107 6.942 8.229 6.361 14.057l.002-.008a1 1 0 0 0-.003.108v.007c.196 5.876-2.314 11.06-5.604 15.362s-7.468 7.995-11.78 11.459l-.009.007-.049.043c-8.167 7.934-14.047 19.586-11.937 31.342q0 .009.004.018l.011.054v.002c.409 1.485 1.08 2.612 2.043 3.682 3.872 3.753 10.414 7.066 16.908-.082 1.038-1.163 1.753-2.457 2.116-4.22v-.003a1 1 0 0 0 .015-.117v-.002c.216-3.912.7-7.67 1.983-11.226s3.583-7.084 7.256-9.221l.003-.002a1 1 0 0 0 .075-.049l.004-.002c11.434-8.574 20.927-21.416 20.644-36.488q-.004-.236.008-.47c.955-16.515-10.087-32.29-26.074-36.762l-.164-.05C73.725-2.365 68.938-2.9 64.18-2.774" style="display:inline;fill:#e6e6e6;stroke-width:1.67687583" transform="matrix(.9565 0 0 .87728 2.79 7.863)"/><ellipse cx="63.987" cy="111.184" rx="14.276" ry="12.841" style="opacity:1;fill:#e6e6e6;fill-opacity:1;stroke:#000;stroke-width:.37932184;stroke-linecap:round;stroke-linejoin:round;stroke-miterlimit:4;stroke-dasharray:none;stroke-dashoffset:11.33720303;stroke-opacity:1"/></g></svg>