<svg xmlns="http://www.w3.org/2000/svg" width="128" height="128"><defs><marker id="e" orient="auto" refX="0" refY="0" style="overflow:visible"><path d="m0 0 5-5-17.5 5L5 5z" style="fill-rule:evenodd;stroke:red;stroke-width:1pt;stroke-opacity:1;fill:red;fill-opacity:1" transform="translate(4)scale(.4)"/></marker><marker id="d" orient="auto" refX="0" refY="0" style="overflow:visible"><path d="m0 0 5-5-17.5 5L5 5z" style="fill-rule:evenodd;stroke:#00f;stroke-width:1pt;stroke-opacity:1;fill:#00f;fill-opacity:1" transform="translate(4)scale(.4)"/></marker><marker id="c" orient="auto" refX="0" refY="0" style="overflow:visible"><path d="m0 0 5-5-17.5 5L5 5z" style="fill-rule:evenodd;stroke:#0f0;stroke-width:1pt;stroke-opacity:1;fill:#0f0;fill-opacity:1" transform="translate(4)scale(.4)"/></marker><linearGradient id="a"><stop offset="0" style="stop-color:#fff;stop-opacity:1"/><stop offset="1" style="stop-color:#fff;stop-opacity:0"/></linearGradient></defs><path d="m19.483 76.205 102.634-24.644" style="display:inline;fill:#0f0;stroke:#0f0;stroke-width:7.55905512;stroke-linecap:butt;stroke-linejoin:miter;stroke-miterlimit:4;stroke-dasharray:none;stroke-opacity:1;marker-start:url(#c)"/><path d="M19.483 116.545 122.117 91.9" style="display:inline;fill:#00f;stroke:#00f;stroke-width:7.55905512;stroke-linecap:butt;stroke-linejoin:miter;stroke-miterlimit:4;stroke-dasharray:none;stroke-opacity:1;marker-start:url(#d)"/><path d="m19.483 35.865 102.635-24.644" style="fill:red;stroke:red;stroke-width:7.55905512;stroke-linecap:butt;stroke-linejoin:miter;stroke-miterlimit:4;stroke-dasharray:none;stroke-opacity:1;marker-start:url(#e)"/><path d="m84.75 121.75 4.671-15.46-12.872-9.752 16.146-.334 5.297-15.257L103.3 96.2l16.147.324-12.866 9.76 4.681 15.457-13.259-9.22z" style="display:inline;opacity:1;fill:#ff0;fill-opacity:1;stroke:#000;stroke-width:2.67082047;stroke-linecap:square;stroke-linejoin:round;stroke-miterlimit:4;stroke-dasharray:none;stroke-dashoffset:11.33720303;stroke-opacity:1" transform="matrix(1.31671 0 0 1.38016 -36.035 -46.878)"/></svg>