<svg xmlns="http://www.w3.org/2000/svg" xmlns:xlink="http://www.w3.org/1999/xlink" width="96" height="96" version="1.0"><defs><linearGradient id="e"><stop offset="0" style="stop-color:#fff;stop-opacity:1"/><stop offset="1" style="stop-color:#fff;stop-opacity:0"/></linearGradient><linearGradient id="d"><stop offset="0" style="stop-color:#b3b3b3;stop-opacity:1"/><stop offset="1" style="stop-color:#efefef;stop-opacity:1"/></linearGradient><linearGradient id="a"><stop offset="0" style="stop-color:#fff;stop-opacity:1"/><stop offset="1" style="stop-color:#fff;stop-opacity:0"/></linearGradient><linearGradient id="b"><stop offset="0" style="stop-color:#509528;stop-opacity:1"/><stop offset="1" style="stop-color:#78cd46;stop-opacity:1"/></linearGradient><linearGradient xlink:href="#a" id="n" x1="36.357" x2="36.357" y1="6" y2="63.893" gradientUnits="userSpaceOnUse"/><linearGradient xlink:href="#a" id="q" x1="48" x2="48" y1="20.221" y2="138.661" gradientUnits="userSpaceOnUse"/><linearGradient xlink:href="#b" id="m" x1="48" x2="48" y1="90" y2="5.988" gradientUnits="userSpaceOnUse"/><linearGradient id="c" x1="45.448" x2="45.448" y1="92.54" y2="7.017" gradientTransform="matrix(1.00587 0 0 .99417 100 0)" gradientUnits="userSpaceOnUse"><stop offset="0" style="stop-color:#000;stop-opacity:1"/><stop offset="1" style="stop-color:#000;stop-opacity:.58823532"/></linearGradient><linearGradient xlink:href="#c" id="i" x1="32.251" x2="32.251" y1="6.132" y2="90.239" gradientTransform="matrix(1.0238 0 0 1.0119 -1.143 -98.071)" gradientUnits="userSpaceOnUse"/><linearGradient xlink:href="#c" id="j" x1="32.251" x2="32.251" y1="6.132" y2="90.239" gradientTransform="matrix(1.0238 0 0 1.0119 -1.143 -98.071)" gradientUnits="userSpaceOnUse"/><linearGradient xlink:href="#c" id="k" x1="32.251" x2="32.251" y1="6.132" y2="90.239" gradientTransform="matrix(1.0238 0 0 1.0119 -1.143 -98.071)" gradientUnits="userSpaceOnUse"/><linearGradient xlink:href="#c" id="l" x1="32.251" x2="32.251" y1="6.132" y2="90.239" gradientTransform="translate(0 -97)" gradientUnits="userSpaceOnUse"/><linearGradient xlink:href="#c" id="h" x1="32.251" x2="32.251" y1="6.132" y2="90.239" gradientTransform="matrix(1.0238 0 0 1.0119 -1.143 -98.071)" gradientUnits="userSpaceOnUse"/><linearGradient xlink:href="#d" id="s" x1="-45.877" x2="-3.85" y1="75.985" y2="22.235" gradientTransform="matrix(.87247 0 0 .87247 96.796 21.7)" gradientUnits="userSpaceOnUse"/><linearGradient xlink:href="#e" id="t" x1="-16.228" x2="-49.582" y1="38.29" y2="66.304" gradientTransform="matrix(.87247 0 0 .87247 96.796 21.7)" gradientUnits="userSpaceOnUse"/><linearGradient xlink:href="#e" id="u" x1="-11.67" x2="-33.249" y1="39.988" y2="72.852" gradientTransform="matrix(.87247 0 0 .87247 96.796 21.7)" gradientUnits="userSpaceOnUse"/><radialGradient xlink:href="#a" id="o" cx="48" cy="90.172" r="42" fx="48" fy="90.172" gradientTransform="matrix(1.15731 0 0 .9959 -7.551 .197)" gradientUnits="userSpaceOnUse"/><clipPath id="p"><rect width="84" height="84" x="6" y="6" rx="6" ry="6" style="fill:#fff;fill-opacity:1;fill-rule:nonzero;stroke:none"/></clipPath><filter id="r" width="1.384" height="1.384" x="-.192" y="-.192" color-interpolation-filters="sRGB"><feGaussianBlur stdDeviation="5.28"/></filter></defs><g transform="scale(1 -1)"><path d="M12-95.031c-5.511 0-10.031 4.52-10.031 10.031v71C1.969-8.489 6.489-3.969 12-3.969h72c5.511 0 10.031-4.52 10.031-10.031v-71c0-5.511-4.52-10.031-10.031-10.031z" style="opacity:.07999998;fill:url(#h);fill-opacity:1;fill-rule:nonzero;stroke:none;display:inline"/><path d="M12-94.031c-4.972 0-9.031 4.06-9.031 9.031v71c0 4.972 4.06 9.031 9.031 9.031h72c4.972 0 9.031-4.06 9.031-9.031v-71c0-4.972-4.06-9.031-9.031-9.031z" style="opacity:.1;fill:url(#i);fill-opacity:1;fill-rule:nonzero;stroke:none;display:inline"/><path d="M12-93c-4.41 0-8 3.59-8 8v71c0 4.41 3.59 8 8 8h72c4.41 0 8-3.59 8-8v-71c0-4.41-3.59-8-8-8z" style="opacity:.2;fill:url(#j);fill-opacity:1;fill-rule:nonzero;stroke:none;display:inline"/><rect width="86" height="85" x="5" y="-92" rx="7" ry="7" style="opacity:.3;fill:url(#k);fill-opacity:1;fill-rule:nonzero;stroke:none;display:inline"/><rect width="84" height="84" x="6" y="-91" rx="6" ry="6" style="opacity:.45;fill:url(#l);fill-opacity:1;fill-rule:nonzero;stroke:none;display:inline"/></g><rect width="84" height="84" x="6" y="6" rx="6" ry="6" style="fill:url(#m);fill-opacity:1;fill-rule:nonzero;stroke:none"/><path d="M12 6c-3.324 0-6 2.676-6 6v72c0 .335.041.65.094.969.048.295.097.597.187.875l.032.094c.098.287.234.547.375.812.144.274.315.536.5.781a6.105 6.105 0 0 0 2.094 1.781c.278.14.573.247.874.344a5 5 0 0 1-.719-.375c-.007-.004-.023.005-.03 0q-.048-.031-.095-.062c-.12-.077-.23-.164-.343-.25-.106-.081-.214-.161-.313-.25a5 5 0 0 1-.5-.531 5 5 0 0 1-.312-.407c-.025-.038-.039-.086-.063-.125-.065-.103-.13-.204-.187-.312a5 5 0 0 1-.282-.625c-.007-.022-.023-.04-.03-.063-.033-.092-.037-.187-.063-.281-.03-.107-.07-.203-.094-.312A5 5 0 0 1 7 85V13c0-2.782 2.218-5 5-5h72c2.782 0 5 2.218 5 5v72c0 .364-.052.721-.125 1.063a5 5 0 0 1-.156.593c-.008.022-.024.04-.031.063a6 6 0 0 1-.22.531c-.04.083-.078.17-.124.25-.055.097-.127.188-.188.281a5 5 0 0 1-.312.406 5 5 0 0 1-.469.5l-.031.032a5 5 0 0 1-.438.344c-.102.073-.204.153-.312.218-.008.005-.024-.004-.031 0a5 5 0 0 1-.72.375c.302-.097.597-.204.876-.344a6.1 6.1 0 0 0 2.094-1.78c.184-.246.355-.508.5-.782a6 6 0 0 0 .374-.812l.032-.094c.09-.278.139-.58.187-.875.053-.318.094-.634.094-.969V12c0-3.324-2.676-6-6-6z" style="opacity:.4;fill:url(#n);fill-opacity:1;fill-rule:nonzero;stroke:none"/><path d="M12 90c-3.324 0-6-2.676-6-6V12c0-.335.041-.65.094-.969.048-.295.097-.597.187-.875l.032-.094a6 6 0 0 1 .375-.812c.144-.274.315-.536.5-.781a6.105 6.105 0 0 1 2.094-1.781c.278-.14.573-.247.874-.344-.256.1-.486.236-.719.375-.007.004-.023-.005-.03 0q-.048.03-.095.062c-.12.077-.23.164-.343.25-.106.081-.214.161-.313.25a5 5 0 0 0-.5.532c-.107.13-.218.265-.312.406-.025.038-.039.086-.063.125-.065.103-.13.204-.187.312a5 5 0 0 0-.282.625c-.007.022-.023.04-.03.063-.033.092-.037.187-.063.281-.03.107-.07.203-.094.313A5 5 0 0 0 7 11v72c0 2.782 2.218 5 5 5h72c2.782 0 5-2.218 5-5V11c0-.364-.052-.721-.125-1.062a5 5 0 0 0-.156-.594c-.008-.022-.024-.04-.031-.063a6 6 0 0 0-.22-.531c-.04-.083-.078-.17-.124-.25-.055-.097-.127-.188-.188-.281a5 5 0 0 0-.312-.406 5 5 0 0 0-.469-.5l-.031-.032a5 5 0 0 0-.438-.343c-.102-.074-.204-.154-.312-.22-.008-.004-.024.005-.031 0a5 5 0 0 0-.72-.374c.302.097.597.204.876.343a6.1 6.1 0 0 1 2.094 1.782c.184.245.355.507.5.781.14.265.276.525.374.813l.032.093c.09.278.139.58.187.875.053.318.094.634.094.969v72c0 3.324-2.676 6-6 6z" style="opacity:.2;fill:url(#o);fill-opacity:1;fill-rule:nonzero;stroke:none"/><rect width="66" height="66" x="15" y="15" clip-path="url(#p)" rx="12" ry="12" style="opacity:.1;fill:url(#q);fill-opacity:1;fill-rule:nonzero;stroke:#fff;stroke-width:.5;stroke-linecap:round;stroke-linejoin:miter;stroke-miterlimit:4;stroke-opacity:1;stroke-dasharray:none;stroke-dashoffset:0;filter:url(#r)"/><path d="M93.438 39.875c-1.625.057-2.236 1.907-3.349 2.807-6.25 7.007-14.294 12.128-22.801 15.96-5.003 2.353-10.636 4.767-13.21 10.028-2.659 4.81-1.741 10.51-.552 15.6.62 1.979.626 4.22 1.63 6.042 1.11 1.238 2.968.593 4.42.771 7.427.01 15.316-2.039 20.48-7.703 6.127-6.619 8.131-15.72 10.336-24.19 1.415-5.699 2.882-11.412 5.046-16.877.231-1.235-.742-2.426-2-2.438" style="opacity:.05;fill:#000;fill-opacity:1;stroke:none"/><path d="M93.281 40.813a1.13 1.13 0 0 0-.687.406c-7.738 9.14-15.426 13.584-21.938 16.812S58.66 63.187 55.72 67.656c-2.016 3.065-2.647 6.072-2.438 9.438.21 3.366 1.181 7.118 2.344 12.156a1.125 1.125 0 0 0 1.031.875c7.992.352 13.901-1.045 18.344-3.781s7.373-6.775 9.5-11.469c4.255-9.389 5.553-21.491 9.969-32.531a1.125 1.125 0 0 0-1.188-1.532" style="opacity:.15;fill:#000;fill-opacity:1;stroke:none"/><path d="M56.732 89.012c-2.331-10.104-3.883-14.955-.086-20.727 5.312-8.075 21.073-7.773 36.791-26.341-8.982 22.454-5.354 48.45-36.705 47.068" style="opacity:.3;fill:#000;fill-opacity:1;stroke:none"/><path d="M30.406 12.969c-6.225-.184-12.202 3.463-15.106 8.935-3.742 6.827-4.061 15.151-2.24 22.602 1.367 5.332 4.477 10.547 9.672 12.894 2.682 1.713 6.917.38 7.327 4.369 2.087 4.44 7.446 5.786 11.957 5.283 1.483-.015 3.691-.249 3.828-2.146-.105-1.742.222-3.562-.188-5.25-.65-2.348-4.237-.036-4.437-2.567-1.066-1.921 1.22-2.766 2.281-3.964 4.151-5.073 5.518-11.96 5.063-18.375.833.82 2.103.447 3.156.531.081 5.057-.197 10.13.216 15.173.217 3.708 2.646 7.302 6.398 8.14 3.71.961 7.746.801 11.386-.313 1.575-1.024.826-3.1 1-4.657-.118-1.586.264-3.263-.25-4.78-1.236-1.916-3.779-.625-5.605-.965-1.312-.535-.485-2.788-.708-4.046V35.28c1.669-.125 3.434.276 5.031-.25 1.689-.965.922-3.135 1.094-4.72-.124-1.688.274-3.473-.25-5.092-.965-1.688-3.135-.922-4.72-1.094-1.426.456-1.194-.747-1.155-1.757-.095-2.138.196-4.329-.156-6.43-.793-1.842-2.994-1.148-4.555-1.215-1.503.183-3.162-.252-4.539.464-1.232 1.085-.983 2.951-1.476 4.407l-.961 4.531c-1.534.108-3.705-.517-4.469 1.281-.31.985-.09 2.045-.156 3.063-1.428-6.656-5.91-13.175-12.803-14.907a17.8 17.8 0 0 0-4.635-.593m0 12c3.507-.104 4.164 4.234 4.547 6.883.366 4.504.568 9.34-1.402 13.522-1.362 3.114-6.275 2.156-6.871-1.042-1.528-4.721-1.499-9.902-.52-14.735.517-2.068 1.609-4.92 4.246-4.628" style="font-size:136.83798218px;font-style:normal;font-variant:normal;font-weight:700;font-stretch:normal;text-align:start;line-height:125%;writing-mode:lr-tb;text-anchor:start;opacity:.07999998;fill:#000;fill-opacity:1;stroke:none;font-family:UnDotum;-inkscape-font-specification:UnDotum Bold"/><path d="M30.406 14.031c-4.948 0-9.092 1.871-12.156 5.5-3.48 4.116-5.188 9.655-5.187 16.5 0 5.099.986 9.579 3 13.407v.03c2.94 5.479 7.646 8.365 13.625 8.594.736 2.714 1.96 5.026 4.156 6.407 2.404 1.512 5.695 1.943 10.062 1.281a1.04 1.04 0 0 0 .875-1.031V60.5a1.04 1.04 0 0 0-1.125-1.031c-1.772.163-2.489-.175-3-.844-.478-.626-.747-1.928-.906-3.594 1.046-.739 2.037-1.552 2.906-2.593h.032c3.337-4.008 4.937-9.53 4.937-16.407 0-5.144-1.034-9.64-3.125-13.468-3.098-5.576-7.934-8.532-14.094-8.532m31.625 1.688-5.937.156a1.04 1.04 0 0 0-.969.813l-1.812 8.5h-3.376a1.04 1.04 0 0 0-1.03 1.03v6.97a1.04 1.04 0 0 0 1.03 1.03h2.844v12.313c0 3.733.469 6.453 1.688 8.25.007.01.024.022.031.032 1.563 2.352 4.68 3.343 8.969 3.343 1.478 0 3.262-.207 5.375-.656a1.04 1.04 0 0 0 .812-1v-6.625a1.04 1.04 0 0 0-1.094-1.031c-1.414.079-2.458.125-3.124.125-1.043 0-1.641-.235-1.813-.375-.026-.021-.192-.232-.312-.719-.121-.487-.22-1.206-.22-2.125V34.219h5.094a1.04 1.04 0 0 0 1.032-1.032V26.22a1.04 1.04 0 0 0-1.031-1.032h-5.094V16.75a1.04 1.04 0 0 0-1.063-1.031m-31.625 8.187c1.961 0 3.235.8 4.25 2.75 1.015 1.951 1.594 5.118 1.594 9.438s-.578 7.51-1.594 9.468c-1.015 1.96-2.291 2.75-4.25 2.75-1.999 0-3.308-.812-4.343-2.78-1.036-1.97-1.626-5.163-1.625-9.5v-1.063c.11-3.919.76-6.8 1.78-8.563 1.025-1.768 2.284-2.5 4.188-2.5" style="font-size:136.83798218px;font-style:normal;font-variant:normal;font-weight:700;font-stretch:normal;text-align:start;line-height:125%;writing-mode:lr-tb;text-anchor:start;opacity:.15;fill:#000;fill-opacity:1;stroke:none;font-family:UnDotum;-inkscape-font-specification:UnDotum Bold"/><path d="M30.406 15.063q-7.046 0-11.375 5.124c-3.29 3.894-4.937 9.17-4.937 15.844 0 4.966.952 9.283 2.875 12.938 2.921 5.442 7.41 8.156 13.437 8.156C31.71 62.941 35.301 66 43.75 64.719V60.5c-3.933.363-4.787-1.8-5.094-5.625v-.25a13.9 13.9 0 0 0 3.219-2.844c3.143-3.774 4.719-9.036 4.719-15.75 0-5.005-1.004-9.314-3-12.968-2.958-5.324-7.345-8-13.188-8m31.657 1.687-5.938.156-1.969 9.313h-4.218v6.968h3.874v13.344c0 3.655.522 6.218 1.532 7.688 1.272 1.946 3.973 2.906 8.125 2.906 1.384 0 3.099-.188 5.156-.625v-6.625c-1.421.08-2.477.125-3.187.125q-1.74.002-2.47-.594c-.598-.476-.906-1.71-.906-3.656V33.188h6.126v-6.97h-6.126zm-31.657 6.125c4.585 0 6.875 4.4 6.875 13.219 0 8.82-2.29 13.25-6.875 13.25-4.659 0-7-4.454-7-13.313V34.97c.222-8.065 2.563-12.094 7-12.094" style="font-size:136.83798218px;font-style:normal;font-variant:normal;font-weight:700;font-stretch:normal;text-align:start;line-height:125%;writing-mode:lr-tb;text-anchor:start;opacity:.3;fill:#000;fill-opacity:1;stroke:none;font-family:UnDotum;-inkscape-font-specification:UnDotum Bold"/><path d="M30.406 14.063q-7.046 0-11.375 5.124c-3.29 3.894-4.937 9.17-4.937 15.844 0 4.966.952 9.283 2.875 12.938 2.921 5.442 7.41 8.156 13.437 8.156C31.71 61.941 35.301 65 43.75 63.719V59.5c-3.933.363-4.787-1.8-5.094-5.625v-.25a13.9 13.9 0 0 0 3.219-2.844c3.143-3.774 4.719-9.036 4.719-15.75 0-5.005-1.004-9.314-3-12.968-2.958-5.324-7.345-8-13.188-8m31.657 1.687-5.938.156-1.969 9.313h-4.218v6.968h3.874v13.344c0 3.655.522 6.218 1.532 7.688 1.272 1.946 3.973 2.906 8.125 2.906 1.384 0 3.099-.188 5.156-.625v-6.625c-1.421.08-2.477.125-3.187.125q-1.74.002-2.47-.594c-.598-.476-.906-1.71-.906-3.656V32.188h6.126v-6.97h-6.126zm-31.657 6.125c4.585 0 6.875 4.4 6.875 13.219 0 8.82-2.29 13.25-6.875 13.25-4.659 0-7-4.454-7-13.313V33.97c.222-8.065 2.563-12.094 7-12.094" style="font-size:136.83798218px;font-style:normal;font-variant:normal;font-weight:700;font-stretch:normal;text-align:start;line-height:125%;writing-mode:lr-tb;text-anchor:start;fill:#fff;fill-opacity:1;stroke:none;font-family:UnDotum;-inkscape-font-specification:UnDotum Bold"/><path d="M56.732 88.012c-2.331-10.104-3.883-14.955-.086-20.727 5.312-8.075 21.073-7.773 36.791-26.341-8.982 22.454-5.354 48.45-36.705 47.068" style="fill:url(#s);fill-opacity:1;stroke:none"/><path d="M56.732 86.803C71.76 68.58 87.651 48.976 87.651 48.976c-16.41 12.09-25.696 12.898-29.796 18.05-4.827 6.065-2.073 16.15-1.123 19.777" style="opacity:.39393939;fill:url(#t);fill-opacity:1;stroke:none"/><path d="m58.46 87.235 28.586-34.546c-.518 4.75-2.248 20.652-8.895 27.723-7.187 7.646-19.691 6.823-19.691 6.823" style="opacity:.45021644;fill:url(#u);fill-opacity:1;stroke:none"/><path d="M58.287 86.63c.777.346 28.673-35.236 28.673-35.236S57.682 84.298 58.287 86.63" style="fill:#9f9f9f;fill-opacity:1;stroke:none"/></svg>