<svg xmlns="http://www.w3.org/2000/svg" width="128" height="128"><g transform="matrix(2.5502 0 0 2.56504 -2.152 -3.42)"><rect width="38.997" height="45.003" x="6.442" y="3.783" rx=".567" ry=".567" style="opacity:1;fill:#ccc;fill-opacity:1;fill-rule:evenodd;stroke:#000;stroke-width:3.12791419;stroke-linecap:butt;stroke-linejoin:miter;stroke-miterlimit:4;stroke-dasharray:none;stroke-dashoffset:0;stroke-opacity:1"/><path d="M-36.92 12.286h25.88v1.949h-25.88z" style="color:#000;display:inline;overflow:visible;visibility:visible;opacity:1;fill:#4d4d4d;fill-opacity:1;fill-rule:evenodd;stroke:none;stroke-width:1;stroke-linecap:butt;stroke-linejoin:miter;stroke-miterlimit:4;stroke-dasharray:none;stroke-dashoffset:0;stroke-opacity:1;marker:none;marker-start:none;marker-mid:none;marker-end:none" transform="scale(-1 1)"/><path d="M-40.841 18.286h29.802v1.949h-29.802z" style="color:#000;display:inline;overflow:visible;visibility:visible;opacity:1;fill:#4d4d4d;fill-opacity:1;fill-rule:evenodd;stroke:none;stroke-width:1;stroke-linecap:butt;stroke-linejoin:miter;stroke-miterlimit:4;stroke-dasharray:none;stroke-dashoffset:0;stroke-opacity:1;marker:none;marker-start:none;marker-mid:none;marker-end:none" transform="scale(-1 1)"/><path d="M-32.998 24.286h21.959v1.949h-21.959z" style="color:#000;display:inline;overflow:visible;visibility:visible;opacity:1;fill:#4d4d4d;fill-opacity:1;fill-rule:evenodd;stroke:none;stroke-width:1;stroke-linecap:butt;stroke-linejoin:miter;stroke-miterlimit:4;stroke-dasharray:none;stroke-dashoffset:0;stroke-opacity:1;marker:none;marker-start:none;marker-mid:none;marker-end:none" transform="scale(-1 1)"/><path d="M-36.92 30.286h25.88v1.949h-25.88z" style="color:#000;display:inline;overflow:visible;visibility:visible;opacity:1;fill:#4d4d4d;fill-opacity:1;fill-rule:evenodd;stroke:none;stroke-width:1;stroke-linecap:butt;stroke-linejoin:miter;stroke-miterlimit:4;stroke-dasharray:none;stroke-dashoffset:0;stroke-opacity:1;marker:none;marker-start:none;marker-mid:none;marker-end:none" transform="scale(-1 1)"/><path d="M-40.841 36.286h29.802v1.949h-29.802z" style="color:#000;display:inline;overflow:visible;visibility:visible;opacity:1;fill:#4d4d4d;fill-opacity:1;fill-rule:evenodd;stroke:none;stroke-width:1;stroke-linecap:butt;stroke-linejoin:miter;stroke-miterlimit:4;stroke-dasharray:none;stroke-dashoffset:0;stroke-opacity:1;marker:none;marker-start:none;marker-mid:none;marker-end:none" transform="scale(-1 1)"/><rect width="37.026" height="43.022" x="7.44" y="4.786" rx="0" ry="0" style="opacity:1;fill:none;fill-opacity:1;fill-rule:evenodd;stroke:#fff;stroke-width:.99999982;stroke-linecap:butt;stroke-linejoin:miter;stroke-miterlimit:4;stroke-dasharray:none;stroke-dashoffset:0;stroke-opacity:1"/></g><path d="m84.75 121.75 4.671-15.46-12.872-9.752 16.146-.334 5.297-15.257L103.3 96.2l16.147.324-12.866 9.76 4.681 15.457-13.259-9.22z" style="display:inline;opacity:1;fill:#ff0;fill-opacity:1;stroke:#000;stroke-width:2.67082047;stroke-linecap:square;stroke-linejoin:round;stroke-miterlimit:4;stroke-dasharray:none;stroke-dashoffset:11.33720303;stroke-opacity:1" transform="matrix(1.53616 0 0 1.6102 -62.54 -75.19)"/></svg>