<svg xmlns="http://www.w3.org/2000/svg" width="128" height="128"><path d="M37.372 19.423a8.427 7.854 0 0 0-2.934 1.052C25.56 25.262 18.162 31.985 13 40.245c-16.344 26.152-6.845 60.065 21.212 75.299 28.058 15.233 64.444 6.38 80.788-19.771s6.845-60.065-21.212-75.298a8.495 7.918 0 1 0-8.576 13.671c20.189 10.96 26.88 34.818 15.12 53.634s-37.356 25.053-57.544 14.092C22.686 90.958 15.89 67.227 27.442 48.448l.226-.21c3.688-5.9 9.004-10.883 15.345-14.302a8.427 7.854 0 0 0-5.641-14.513z" style="color:#000;font-style:normal;font-variant:normal;font-weight:400;font-stretch:normal;font-size:medium;line-height:normal;font-family:Sans;-inkscape-font-specification:Sans;text-indent:0;text-align:start;text-decoration:none;text-decoration-line:none;letter-spacing:normal;word-spacing:normal;text-transform:none;writing-mode:lr-tb;direction:ltr;baseline-shift:baseline;text-anchor:start;display:inline;overflow:visible;visibility:visible;fill:red;fill-opacity:1;stroke:#000;stroke-width:0;stroke-miterlimit:4;stroke-dasharray:none;stroke-opacity:1;marker:none"/><path d="M62.157 5.19a8.428 7.853 0 0 0-6.584 7.853v39.261a8.428 7.853 0 1 0 16.854 0V13.043a8.428 7.853 0 0 0-10.27-7.853Z" style="color:#000;font-style:normal;font-variant:normal;font-weight:400;font-stretch:normal;font-size:medium;line-height:normal;font-family:Sans;-inkscape-font-specification:Sans;text-indent:0;text-align:start;text-decoration:none;text-decoration-line:none;letter-spacing:normal;word-spacing:normal;text-transform:none;writing-mode:lr-tb;direction:ltr;baseline-shift:baseline;text-anchor:start;display:inline;overflow:visible;visibility:visible;fill:red;fill-opacity:1;stroke:#000;stroke-width:0;stroke-miterlimit:4;stroke-dasharray:none;stroke-opacity:1;marker:none"/></svg>