<svg xmlns="http://www.w3.org/2000/svg" xmlns:xlink="http://www.w3.org/1999/xlink" width="128" height="128"><defs><marker id="d" orient="auto" refX="0" refY="0" style="overflow:visible"><path d="m0 0 5-5-17.5 5L5 5z" style="fill-rule:evenodd;stroke:red;stroke-width:1pt;stroke-opacity:1;fill:red;fill-opacity:1" transform="rotate(180 -.6 0)scale(.2)"/></marker><marker id="g" orient="auto" refX="0" refY="0" style="overflow:visible"><path d="m0 0 5-5-17.5 5L5 5z" style="fill-rule:evenodd;stroke:#00f;stroke-width:1pt;stroke-opacity:1;fill:#00f;fill-opacity:1" transform="rotate(180 -.6 0)scale(.2)"/></marker><marker id="c" orient="auto" refX="0" refY="0" style="overflow:visible"><path d="m0 0 5-5-17.5 5L5 5z" style="fill-rule:evenodd;stroke:#000;stroke-width:1pt;stroke-opacity:1;fill:red;fill-opacity:1" transform="rotate(180 -.6 0)scale(.2)"/></marker><marker id="f" orient="auto" refX="0" refY="0" style="overflow:visible"><path d="m0 0 5-5-17.5 5L5 5z" style="fill-rule:evenodd;stroke:#000;stroke-width:1pt;stroke-opacity:1;fill:#00f;fill-opacity:1" transform="rotate(180 -.6 0)scale(.2)"/></marker><radialGradient xlink:href="#b" id="e" cx="68.751" cy="56.496" r="59" fx="68.751" fy="56.496" gradientTransform="matrix(1.01516 0 0 .66707 .206 25.313)" gradientUnits="userSpaceOnUse"/><linearGradient id="b"><stop offset="0" style="stop-color:#fff;stop-opacity:1"/><stop offset="1" style="stop-color:#06f;stop-opacity:1"/></linearGradient></defs><path d="m70 63 22 45" style="fill:red;stroke:#000;stroke-width:9.44881916;stroke-linecap:round;stroke-linejoin:miter;stroke-miterlimit:4;stroke-dasharray:none;stroke-opacity:1;marker-end:url(#c)"/><path d="m70 63 22 45" style="fill:red;stroke:red;stroke-width:4.15748031;stroke-linecap:round;stroke-linejoin:miter;stroke-miterlimit:4;stroke-dasharray:none;stroke-opacity:1;marker-end:url(#d)"/><path d="M58.97 30.038 7.637 56.943l18.599 38.863 34.47 9.496S58.722 84.2 78.313 83.672c19.59-.527 36.702 2.287 36.702 2.287s16.367-27.61 2.232-40.095S58.97 30.038 58.97 30.038Z" style="fill:url(#e);fill-opacity:1;stroke:#000;stroke-width:3.99997401;stroke-linecap:butt;stroke-linejoin:miter;stroke-miterlimit:4;stroke-dasharray:none;stroke-opacity:1"/><path d="M70 63 48 18" style="fill:#00f;stroke:#000;stroke-width:9.44881916;stroke-linecap:round;stroke-linejoin:miter;stroke-miterlimit:4;stroke-dasharray:none;stroke-opacity:1;marker-end:url(#f)"/><path d="M70 63 48 18" style="fill:#00f;stroke:#00f;stroke-width:4.15748031;stroke-linecap:round;stroke-linejoin:miter;stroke-miterlimit:4;stroke-dasharray:none;stroke-opacity:1;marker-end:url(#g)"/></svg>