<svg xmlns="http://www.w3.org/2000/svg" width="128" height="128"><g transform="matrix(2.5502 0 0 2.56504 -2.152 -3.42)"><rect width="38.997" height="45.003" x="6.442" y="3.783" rx=".567" ry=".567" style="opacity:1;fill:#ccc;fill-opacity:1;fill-rule:evenodd;stroke:#000;stroke-width:3.12791419;stroke-linecap:butt;stroke-linejoin:miter;stroke-miterlimit:4;stroke-dasharray:none;stroke-dashoffset:0;stroke-opacity:1"/><path d="M-36.92 12.286h25.88v1.949h-25.88z" style="color:#000;display:inline;overflow:visible;visibility:visible;opacity:1;fill:#4d4d4d;fill-opacity:1;fill-rule:evenodd;stroke:none;stroke-width:1;stroke-linecap:butt;stroke-linejoin:miter;stroke-miterlimit:4;stroke-dasharray:none;stroke-dashoffset:0;stroke-opacity:1;marker:none;marker-start:none;marker-mid:none;marker-end:none" transform="scale(-1 1)"/><path d="M-40.841 18.286h29.802v1.949h-29.802z" style="color:#000;display:inline;overflow:visible;visibility:visible;opacity:1;fill:#4d4d4d;fill-opacity:1;fill-rule:evenodd;stroke:none;stroke-width:1;stroke-linecap:butt;stroke-linejoin:miter;stroke-miterlimit:4;stroke-dasharray:none;stroke-dashoffset:0;stroke-opacity:1;marker:none;marker-start:none;marker-mid:none;marker-end:none" transform="scale(-1 1)"/><path d="M-32.998 24.286h21.959v1.949h-21.959z" style="color:#000;display:inline;overflow:visible;visibility:visible;opacity:1;fill:#4d4d4d;fill-opacity:1;fill-rule:evenodd;stroke:none;stroke-width:1;stroke-linecap:butt;stroke-linejoin:miter;stroke-miterlimit:4;stroke-dasharray:none;stroke-dashoffset:0;stroke-opacity:1;marker:none;marker-start:none;marker-mid:none;marker-end:none" transform="scale(-1 1)"/><path d="M-36.92 30.286h25.88v1.949h-25.88z" style="color:#000;display:inline;overflow:visible;visibility:visible;opacity:1;fill:#4d4d4d;fill-opacity:1;fill-rule:evenodd;stroke:none;stroke-width:1;stroke-linecap:butt;stroke-linejoin:miter;stroke-miterlimit:4;stroke-dasharray:none;stroke-dashoffset:0;stroke-opacity:1;marker:none;marker-start:none;marker-mid:none;marker-end:none" transform="scale(-1 1)"/><path d="M-40.841 36.286h29.802v1.949h-29.802z" style="color:#000;display:inline;overflow:visible;visibility:visible;opacity:1;fill:#4d4d4d;fill-opacity:1;fill-rule:evenodd;stroke:none;stroke-width:1;stroke-linecap:butt;stroke-linejoin:miter;stroke-miterlimit:4;stroke-dasharray:none;stroke-dashoffset:0;stroke-opacity:1;marker:none;marker-start:none;marker-mid:none;marker-end:none" transform="scale(-1 1)"/><rect width="37.026" height="43.022" x="7.44" y="4.786" rx="0" ry="0" style="opacity:1;fill:none;fill-opacity:1;fill-rule:evenodd;stroke:#fff;stroke-width:.99999982;stroke-linecap:butt;stroke-linejoin:miter;stroke-miterlimit:4;stroke-dasharray:none;stroke-dashoffset:0;stroke-opacity:1"/></g><path d="M7.107 55.107h54.636v65.786H7.107Z" style="opacity:1;fill:#b3b3b3;fill-opacity:1;stroke:#000;stroke-width:4.21422768;stroke-linecap:round;stroke-linejoin:round;stroke-miterlimit:4;stroke-dasharray:none;stroke-dashoffset:11.33720303;stroke-opacity:1"/><path d="M14.355 62.355h40.14v11.15h-40.14ZM14.355 79.08H24.39v7.805H14.355ZM44.46 79.08h10.035v7.805H44.46ZM29.407 79.08h10.036v7.805H29.407ZM14.355 91.903H24.39v7.805H14.355ZM44.46 91.903h10.035v21.185H44.46ZM29.407 91.903h10.036v7.805H29.407ZM14.355 105.283H24.39v7.805H14.355ZM29.407 105.283h10.036v7.805H29.407Z" style="opacity:1;fill:#fff;fill-opacity:1;stroke:#000;stroke-width:3.37138224;stroke-linecap:round;stroke-linejoin:round;stroke-miterlimit:4;stroke-dasharray:none;stroke-dashoffset:11.33720303;stroke-opacity:1"/></svg>