<?xml version="1.0" encoding="UTF-8" standalone="no"?>
<svg
   viewBox="0 0 1024 1024"
   version="1.1"
   id="svg16"
   xmlns:xlink="http://www.w3.org/1999/xlink"
   xmlns="http://www.w3.org/2000/svg"
   xmlns:svg="http://www.w3.org/2000/svg"
   xmlns:bx="https://boxy-svg.com">
  <defs
     id="defs12">
    <linearGradient
       id="linearGradient2">
      <stop
         style="stop-color:#d48080;stop-opacity:1;"
         offset="0"
         id="stop2" />
      <stop
         style="stop-color:#640a0a;stop-opacity:1;"
         offset="1"
         id="stop3" />
    </linearGradient>
    <bx:guide
       x="-10"
       y="100"
       angle="90" />
    <bx:guide
       x="100"
       y="-10"
       angle="0" />
    <bx:guide
       x="924"
       y="-10"
       angle="0" />
    <bx:guide
       x="-10"
       y="924"
       angle="90" />
    <radialGradient
       xlink:href="#linearGradient2"
       id="radialGradient1"
       cx="96.493362"
       cy="926.99707"
       fx="96.493362"
       fy="926.99707"
       r="415"
       gradientUnits="userSpaceOnUse"
       gradientTransform="matrix(-1.8634597,1.8721549,-1.872152,-1.8634563,2842.291,1643.7679)" />
  </defs>
  <path
     d="m 466.75921,30.349023 c -11.76004,0 -22.18409,7.768046 -25.60012,18.960116 l -27.69613,91.952571 a 384.00192,384.00237 0 0 0 -93.88047,38.86424 l -84.59244,-45.32028 c -10.43202,-5.50405 -23.14411,-3.79202 -31.48814,4.73601 l -64.10431,63.8964 a 27.040134,27.040166 0 0 0 -4.74405,31.66422 l 45.52024,84.36851 a 384.00192,384.00237 0 0 0 -38.88019,93.84055 l -91.992464,27.6802 A 26.640132,26.640163 0 0 0 30.34104,466.59172 v 90.62455 c 0,11.76007 7.776039,22.18414 18.960096,25.60015 L 141.2936,610.4966 a 386.40193,386.40238 0 0 0 38.88019,93.84056 l -45.32823,84.56053 a 27.040134,27.040166 0 0 0 4.74405,31.66421 l 64.10431,64.08038 a 26.800135,26.800166 0 0 0 31.48814,4.74404 l 84.58444,-45.31229 a 384.00192,384.00237 0 0 0 93.88847,38.86425 l 27.68812,91.76056 a 26.640132,26.640163 0 0 0 25.60812,18.96011 h 90.66446 c 11.76007,0 22.19212,-7.76804 25.60013,-18.96011 l 27.69615,-91.76056 a 386.40193,386.40238 0 0 0 93.88047,-38.86425 l 84.59241,45.31229 a 27.040134,27.040166 0 0 0 31.68017,-4.74404 l 64.10432,-64.08038 a 27.040134,27.040166 0 0 0 4.74403,-31.66421 L 844.00911,704.33716 A 380.00189,380.00233 0 0 0 882.8893,610.4966 l 91.80046,-27.68018 a 26.640132,26.640163 0 0 0 18.96809,-25.60015 V 466.59972 A 26.480133,26.480164 0 0 0 974.88176,440.99956 L 882.8973,413.31938 A 386.40193,386.40238 0 0 0 844.01711,319.4788 l 45.32022,-84.56051 a 27.040134,27.040166 0 0 0 -4.73602,-31.6642 l -64.10432,-64.0804 a 27.040134,27.040166 0 0 0 -31.68016,-4.74402 l -84.20841,45.69628 A 384.00192,384.00237 0 0 0 610.71995,141.26171 L 583.02381,49.301139 A 26.640132,26.640163 0 0 0 557.42368,30.341021 Z m 45.33623,249.497537 c 128.02465,0 232.14517,104.08864 232.14517,232.06543 0,127.9768 -104.12052,232.06542 -232.14517,232.06542 -128.02462,0 -232.16115,-104.08062 -232.16115,-232.06542 0,-127.9848 104.14453,-232.06543 232.16916,-232.06543 z"
     style="display:inline;fill:#e6e6e6;fill-opacity:1;stroke:#000000;stroke-width:60.6817;stroke-miterlimit:4;stroke-dasharray:none;stroke-opacity:1"
     id="path835" />
  <g
     id="g4"
     transform="translate(150,125)"
     style="display:inline;fill:#f2f2f2;fill-opacity:1;stroke:#e00000;stroke-width:0;stroke-miterlimit:4;stroke-dasharray:none;stroke-opacity:1">
    <path
       id="path1"
       style="fill:#ffffff;fill-opacity:1;stroke:#333333;stroke-width:50;stroke-linecap:round;stroke-linejoin:round;stroke-miterlimit:4;stroke-dasharray:none;stroke-opacity:1;paint-order:normal"
       d="M 460,460 A 125,125 0 0 0 335,585 100,99.508118 0 0 0 235,684.50781 100,99.508118 0 0 0 335,784.01562 V 785 H 735 A 100,100 0 0 0 835,685 100,100 0 0 0 735,585 100,100 0 0 0 635,485 100,100 0 0 0 563.70703,515.23242 125,125 0 0 0 460,460 Z" />
  </g>
</svg>
