<svg xmlns="http://www.w3.org/2000/svg" width="128" height="128"><defs><clipPath id="b" clipPathUnits="userSpaceOnUse"><path d="M0 0h128v128H0z" style="opacity:1;fill:#4d4d4d;fill-opacity:1;stroke:none;stroke-width:7.55905533;stroke-linecap:round;stroke-linejoin:round;stroke-miterlimit:4;stroke-dasharray:none;stroke-dashoffset:11.33720303;stroke-opacity:1"/></clipPath><clipPath id="a" clipPathUnits="userSpaceOnUse"><path d="M0 0h128v128H0z" style="opacity:1;fill:#4d4d4d;fill-opacity:1;stroke:none;stroke-width:7.55905533;stroke-linecap:round;stroke-linejoin:round;stroke-miterlimit:4;stroke-dasharray:none;stroke-dashoffset:11.33720303;stroke-opacity:1"/></clipPath></defs><path d="M-5.655-60.207c-1.47 0-2.773.971-3.2 2.37l-3.462 11.494a48 48 0 0 0-11.735 4.858l-10.574-5.664c-1.304-.688-2.893-.474-3.936.592l-8.013 7.987a3.38 3.38 0 0 0-.593 3.958l5.69 10.546a48 48 0 0 0-4.86 11.73l-11.499 3.46a3.33 3.33 0 0 0-2.37 3.2V5.652c0 1.47.972 2.773 2.37 3.2l11.499 3.46a48.3 48.3 0 0 0 4.86 11.73l-5.666 10.57a3.38 3.38 0 0 0 .593 3.958l8.013 8.01a3.35 3.35 0 0 0 3.936.593l10.573-5.664a48 48 0 0 0 11.736 4.858l3.461 11.47a3.33 3.33 0 0 0 3.201 2.37H5.702c1.47 0 2.774-.971 3.2-2.37l3.462-11.47a48.3 48.3 0 0 0 11.735-4.858l10.574 5.664a3.38 3.38 0 0 0 3.96-.593l8.013-8.01a3.38 3.38 0 0 0 .593-3.958L41.5 24.042a47.5 47.5 0 0 0 4.86-11.73l11.475-3.46a3.33 3.33 0 0 0 2.371-3.2V-5.676a3.31 3.31 0 0 0-2.347-3.2l-11.498-3.46a48.3 48.3 0 0 0-4.86-11.73l5.665-10.57a3.38 3.38 0 0 0-.592-3.958l-8.013-8.01a3.38 3.38 0 0 0-3.96-.593l-10.526 5.712a48 48 0 0 0-11.736-4.858L8.878-57.838a3.33 3.33 0 0 0-3.2-2.37zM.012-29.02c16.003 0 29.018 13.011 29.018 29.008S16.015 28.996.012 28.996s-29.02-13.01-29.02-29.008S-15.99-29.02.013-29.02z" clip-path="url(#a)" style="display:inline;fill:#e6e6e6;fill-opacity:1;stroke:#000;stroke-width:7.58518505;stroke-miterlimit:4;stroke-dasharray:none;stroke-opacity:1"/><path d="M58.735 33.54a3.36 3.36 0 0 0-2.05 3.414l1.201 11.944a48 48 0 0 0-8.983 8.98L36.966 56.69c-1.468-.136-2.853.669-3.41 2.053L29.21 69.19a3.38 3.38 0 0 0 .967 3.884l9.293 7.565a48 48 0 0 0-.001 12.698l-9.3 7.597a3.33 3.33 0 0 0-.965 3.863l4.335 10.466a3.36 3.36 0 0 0 3.414 2.049l11.948-1.204a48.3 48.3 0 0 0 8.98 8.978L56.69 137.02a3.38 3.38 0 0 0 2.062 3.43l10.469 4.334a3.35 3.35 0 0 0 3.863-.96l7.601-9.279c4.233.556 8.473.57 12.702-.003l7.587 9.273a3.33 3.33 0 0 0 3.864.965l10.47-4.337a3.36 3.36 0 0 0 2.05-3.414l-1.191-11.922a48.3 48.3 0 0 0 8.983-8.98l11.936 1.187a3.38 3.38 0 0 0 3.431-2.063l4.339-10.467a3.38 3.38 0 0 0-.968-3.883l-9.345-7.57c.566-4.21.572-8.47.001-12.698l9.277-7.587a3.33 3.33 0 0 0 .966-3.864l-4.335-10.466a3.31 3.31 0 0 0-3.393-2.057l-11.947 1.203a48.3 48.3 0 0 0-8.98-8.978l1.19-11.933a3.38 3.38 0 0 0-2.062-3.43l-10.468-4.333a3.38 3.38 0 0 0-3.885.967l-7.54 9.305a48 48 0 0 0-12.701.003l-7.597-9.295a3.33 3.33 0 0 0-3.864-.964zm17.17 26.645c14.786-6.124 31.79.915 37.911 15.695 6.122 14.779-.924 31.78-15.709 37.904s-31.789-.915-37.91-15.694c-6.123-14.78.924-31.781 15.709-37.905Z" clip-path="url(#b)" style="display:inline;fill:#e6e6e6;fill-opacity:1;stroke:#000;stroke-width:7.58518505;stroke-miterlimit:4;stroke-dasharray:none;stroke-opacity:1"/></svg>