<svg xmlns="http://www.w3.org/2000/svg" width="128" height="128"><defs><marker id="e" orient="auto" refX="0" refY="0" style="overflow:visible"><path d="m0 0 5-5-17.5 5L5 5z" style="fill-rule:evenodd;stroke:red;stroke-width:1pt;stroke-opacity:1;fill:red;fill-opacity:1" transform="translate(4)scale(.4)"/></marker><marker id="d" orient="auto" refX="0" refY="0" style="overflow:visible"><path d="m0 0 5-5-17.5 5L5 5z" style="fill-rule:evenodd;stroke:#00f;stroke-width:1pt;stroke-opacity:1;fill:#00f;fill-opacity:1" transform="translate(4)scale(.4)"/></marker><marker id="c" orient="auto" refX="0" refY="0" style="overflow:visible"><path d="m0 0 5-5-17.5 5L5 5z" style="fill-rule:evenodd;stroke:#0f0;stroke-width:1pt;stroke-opacity:1;fill:#0f0;fill-opacity:1" transform="translate(4)scale(.4)"/></marker><linearGradient id="a"><stop offset="0" style="stop-color:#fff;stop-opacity:1"/><stop offset="1" style="stop-color:#fff;stop-opacity:0"/></linearGradient></defs><path d="m19.483 76.205 102.634-24.644" style="display:inline;fill:#0f0;stroke:#0f0;stroke-width:7.55905512;stroke-linecap:butt;stroke-linejoin:miter;stroke-miterlimit:4;stroke-dasharray:none;stroke-opacity:1;marker-start:url(#c)"/><path d="M19.483 116.545 122.117 91.9" style="display:inline;fill:#00f;stroke:#00f;stroke-width:7.55905512;stroke-linecap:butt;stroke-linejoin:miter;stroke-miterlimit:4;stroke-dasharray:none;stroke-opacity:1;marker-start:url(#d)"/><path d="m19.483 35.865 102.635-24.644" style="fill:red;stroke:red;stroke-width:7.55905512;stroke-linecap:butt;stroke-linejoin:miter;stroke-miterlimit:4;stroke-dasharray:none;stroke-opacity:1;marker-start:url(#e)"/><g style="fill:#fd5"><g style="fill:#fd5;stroke:#000"><path d="m70.064 422.35 374.27-374.26 107.58 107.58-374.26 374.27-129.56 21.97Z" style="fill:#fd5;stroke-width:30" transform="matrix(.11043 0 0 .11043 54.712 55.032)"/><path d="m70.569 417.81 110.61 110.61M491.47 108.37 124.78 475.05M54.222 507.26l40.975 39.546" style="fill:#fd5;stroke-width:25" transform="matrix(.11043 0 0 .11043 54.712 55.032)"/></g></g></svg>