<svg xmlns="http://www.w3.org/2000/svg" xmlns:xlink="http://www.w3.org/1999/xlink" width="128" height="128"><defs><linearGradient id="a"><stop offset="0" style="stop-color:red;stop-opacity:1"/><stop offset=".25" style="stop-color:#ff0;stop-opacity:1"/><stop offset=".5" style="stop-color:#0f0;stop-opacity:1"/><stop offset=".75" style="stop-color:#0ff;stop-opacity:1"/><stop offset="1" style="stop-color:#00f;stop-opacity:1"/></linearGradient><linearGradient xlink:href="#a" id="d" x1="67.314" x2="68.285" y1="8.207" y2="117.809" gradientUnits="userSpaceOnUse"/><linearGradient id="b"><stop offset="0" style="stop-color:#f2f2f2;stop-opacity:1"/><stop offset="1" style="stop-color:#fff;stop-opacity:.03921569"/></linearGradient><linearGradient id="c"><stop offset="0" style="stop-color:#f8f8f7;stop-opacity:1"/><stop offset=".599" style="stop-color:#e8e8e8;stop-opacity:1"/><stop offset="1" style="stop-color:#e2e2de;stop-opacity:1"/></linearGradient><linearGradient xlink:href="#c" id="f" x1="20.794" x2="35.596" y1="18.379" y2="39.6" gradientTransform="matrix(1.3427 0 0 1.23538 -6.28 -4.291)" gradientUnits="userSpaceOnUse"/><radialGradient xlink:href="#b" id="e" cx="51.978" cy="54.191" r="57.79" fx="51.978" fy="54.191" gradientTransform="matrix(.47386 .09789 -.20573 .99593 36.553 -5.364)" gradientUnits="userSpaceOnUse"/></defs><path d="M10 118c14.048-77.442 65.913-202.863 108 0" style="display:inline;fill:url(#d);fill-opacity:1;stroke:#000;stroke-width:0;stroke-linecap:round;stroke-linejoin:miter;stroke-miterlimit:4;stroke-dasharray:none;stroke-opacity:1"/><path d="M10 118c14.048-77.442 65.913-202.863 108 0" style="display:inline;fill:url(#e);fill-opacity:1;stroke:#000;stroke-width:3.77952766;stroke-linecap:round;stroke-linejoin:miter;stroke-miterlimit:4;stroke-dasharray:none;stroke-opacity:1"/><path d="M31.89 1.896c-.807 0-1.524.534-1.759 1.303l-1.903 6.32a26.4 26.4 0 0 0-6.453 2.67l-5.814-3.113a1.82 1.82 0 0 0-2.164.325l-4.406 4.392a1.86 1.86 0 0 0-.326 2.176l3.129 5.798a26.3 26.3 0 0 0-2.672 6.45L3.199 30.12a1.83 1.83 0 0 0-1.303 1.76v6.228c0 .808.534 1.524 1.303 1.759l6.323 1.902a26.6 26.6 0 0 0 2.672 6.45l-3.116 5.812a1.86 1.86 0 0 0 .326 2.176l4.406 4.405c.574.573 1.46.703 2.164.325l5.814-3.114a26.4 26.4 0 0 0 6.453 2.671l1.903 6.307a1.83 1.83 0 0 0 1.76 1.303h6.231c.808 0 1.525-.534 1.76-1.303l1.903-6.307c2.255-.6 4.42-1.498 6.453-2.67l5.814 3.113a1.86 1.86 0 0 0 2.177-.325l4.406-4.405c.573-.573.704-1.46.326-2.176l-3.155-5.811a26.1 26.1 0 0 0 2.672-6.45l6.31-1.903a1.83 1.83 0 0 0 1.303-1.76V31.88a1.82 1.82 0 0 0-1.29-1.759l-6.323-1.902a26.6 26.6 0 0 0-2.672-6.45l3.115-5.812a1.86 1.86 0 0 0-.326-2.176l-4.405-4.405a1.86 1.86 0 0 0-2.178-.325l-5.787 3.14a26.4 26.4 0 0 0-6.453-2.671l-1.903-6.32a1.83 1.83 0 0 0-1.76-1.303zm3.117 17.148c8.799 0 15.955 7.154 15.955 15.95s-7.156 15.949-15.955 15.949c-8.8 0-15.956-7.154-15.956-15.95s7.156-15.949 15.956-15.949z" style="display:inline;fill:#ccc;fill-opacity:1;stroke:#000;stroke-width:3.79146934;stroke-miterlimit:4;stroke-dasharray:none;stroke-opacity:1"/><g transform="matrix(1.52163 0 0 1.52164 53.959 48.005)"><rect width="38.997" height="45.003" x="6.442" y="3.783" rx=".567" ry=".567" style="opacity:1;fill:url(#f);fill-opacity:1;fill-rule:evenodd;stroke:#888a85;stroke-width:.99999976;stroke-linecap:butt;stroke-linejoin:miter;stroke-miterlimit:4;stroke-dasharray:none;stroke-dashoffset:0;stroke-opacity:1"/><path d="M-40.94 12.286h30v2h-30z" style="color:#000;display:inline;overflow:visible;visibility:visible;opacity:1;fill:#999;fill-opacity:1;fill-rule:evenodd;stroke:none;stroke-width:1;stroke-linecap:butt;stroke-linejoin:miter;stroke-miterlimit:4;stroke-dasharray:none;stroke-dashoffset:0;stroke-opacity:1;marker:none;marker-start:none;marker-mid:none;marker-end:none" transform="scale(-1 1)"/><path d="M-40.94 18.286h30v2h-30z" style="color:#000;display:inline;overflow:visible;visibility:visible;opacity:1;fill:#999;fill-opacity:1;fill-rule:evenodd;stroke:none;stroke-width:1;stroke-linecap:butt;stroke-linejoin:miter;stroke-miterlimit:4;stroke-dasharray:none;stroke-dashoffset:0;stroke-opacity:1;marker:none;marker-start:none;marker-mid:none;marker-end:none" transform="scale(-1 1)"/><path d="M-40.94 24.286h30v2h-30z" style="color:#000;display:inline;overflow:visible;visibility:visible;opacity:1;fill:#999;fill-opacity:1;fill-rule:evenodd;stroke:none;stroke-width:1;stroke-linecap:butt;stroke-linejoin:miter;stroke-miterlimit:4;stroke-dasharray:none;stroke-dashoffset:0;stroke-opacity:1;marker:none;marker-start:none;marker-mid:none;marker-end:none" transform="scale(-1 1)"/><path d="M-40.94 30.286h30v2h-30z" style="color:#000;display:inline;overflow:visible;visibility:visible;opacity:1;fill:#999;fill-opacity:1;fill-rule:evenodd;stroke:none;stroke-width:1;stroke-linecap:butt;stroke-linejoin:miter;stroke-miterlimit:4;stroke-dasharray:none;stroke-dashoffset:0;stroke-opacity:1;marker:none;marker-start:none;marker-mid:none;marker-end:none" transform="scale(-1 1)"/><path d="M-40.94 36.286h30v2h-30z" style="color:#000;display:inline;overflow:visible;visibility:visible;opacity:1;fill:#999;fill-opacity:1;fill-rule:evenodd;stroke:none;stroke-width:1;stroke-linecap:butt;stroke-linejoin:miter;stroke-miterlimit:4;stroke-dasharray:none;stroke-dashoffset:0;stroke-opacity:1;marker:none;marker-start:none;marker-mid:none;marker-end:none" transform="scale(-1 1)"/><rect width="37.026" height="43.022" x="7.44" y="4.786" rx="0" ry="0" style="opacity:1;fill:none;fill-opacity:1;fill-rule:evenodd;stroke:#fff;stroke-width:.99999982;stroke-linecap:butt;stroke-linejoin:miter;stroke-miterlimit:4;stroke-dasharray:none;stroke-dashoffset:0;stroke-opacity:1"/></g></svg>