<svg xmlns="http://www.w3.org/2000/svg" width="128" height="128"><g style="opacity:1;fill:#ff4d00;fill-opacity:1;stroke:#000;stroke-width:4;stroke-linecap:round;stroke-linejoin:round;stroke-miterlimit:4;stroke-dasharray:none;stroke-dashoffset:11.33720303;stroke-opacity:1"><path d="M2.434 24.856v37.327L56.56 51.477V19.191Z" style="fill:#ff4d00;fill-opacity:1;fill-rule:evenodd;stroke:#000;stroke-width:4;stroke-linejoin:round;stroke-miterlimit:4;stroke-dasharray:none;stroke-opacity:1"/><path d="m2.434 62.183 56.083 41.962 67.37-23.692L56.56 51.477Z" style="fill:#ff4d00;fill-opacity:1;fill-rule:evenodd;stroke:#000;stroke-width:4;stroke-linejoin:round;stroke-miterlimit:4;stroke-dasharray:none;stroke-opacity:1"/><path d="m56.56 19.19 69.327 14.54v46.723L56.56 51.477Z" style="fill:#ff4d00;fill-opacity:1;fill-rule:evenodd;stroke:#000;stroke-width:4;stroke-linejoin:round;stroke-miterlimit:4;stroke-dasharray:none;stroke-opacity:1"/><path d="m2.434 24.856 56.083 21.218 67.37-12.345L56.56 19.191Z" style="fill:#ff4d00;fill-opacity:1;stroke:#000;stroke-width:4;stroke-miterlimit:4;stroke-dasharray:none;stroke-opacity:1"/><path d="M58.517 46.074v58.071l67.37-23.692V33.729ZM2.434 24.856l56.083 21.218v58.071L2.434 62.183Z" style="fill:#ff4d00;fill-opacity:1;stroke:#000;stroke-width:4;stroke-miterlimit:4;stroke-dasharray:none;stroke-opacity:1"/></g><path d="m61.08 114.92 53.84-53.84M114.92 114.92 61.08 61.08" style="display:inline;fill:none;stroke:#000;stroke-width:15.99995232;stroke-linecap:round;stroke-linejoin:miter;stroke-miterlimit:4;stroke-dasharray:none;stroke-opacity:1"/><g style="fill:#f60;stroke:#cf0"><path d="m61.08 114.92 53.84-53.84M114.92 114.92 61.08 61.08" style="display:inline;fill:#f60;stroke:#cf0;stroke-width:10;stroke-linecap:round;stroke-linejoin:miter;stroke-miterlimit:4;stroke-dasharray:none;stroke-opacity:1"/></g></svg>