<svg xmlns="http://www.w3.org/2000/svg" xmlns:xlink="http://www.w3.org/1999/xlink" width="128" height="128"><defs><linearGradient id="b"><stop offset="0" style="stop-color:#e6e6e6;stop-opacity:1"/><stop offset="1" style="stop-color:#666;stop-opacity:1"/></linearGradient><linearGradient id="a"><stop offset="0" style="stop-color:#b3b3b3;stop-opacity:1"/><stop offset="1" style="stop-color:#4d4d4d;stop-opacity:1"/></linearGradient><linearGradient xlink:href="#a" id="d" x1="10.25" x2="90" y1="63.236" y2="63.986" gradientTransform="translate(-4 6)" gradientUnits="userSpaceOnUse"/><linearGradient xlink:href="#b" id="e" x1="10.25" x2="90" y1="63.236" y2="63.986" gradientTransform="matrix(0 .625 -.55556 0 129.222 41.75)" gradientUnits="userSpaceOnUse"/><linearGradient xlink:href="#c" id="f" x1="20.794" x2="35.596" y1="18.379" y2="39.6" gradientTransform="matrix(1.3427 0 0 1.23538 -6.28 -4.291)" gradientUnits="userSpaceOnUse"/><linearGradient id="c"><stop offset="0" style="stop-color:#f8f8f7;stop-opacity:1"/><stop offset=".599" style="stop-color:#e8e8e8;stop-opacity:1"/><stop offset="1" style="stop-color:#e2e2de;stop-opacity:1"/></linearGradient></defs><path d="M6 34v60c0 6.627 15.285 15 40 15s40-8.373 40-15V34" style="display:inline;opacity:1;fill:url(#d);fill-opacity:1;stroke:#000;stroke-width:4;stroke-linecap:round;stroke-linejoin:round;stroke-miterlimit:4;stroke-dasharray:none;stroke-dashoffset:11.33720303;stroke-opacity:1"/><path d="M46 19C21.285 19 6 27.373 6 34s15.285 15 40 15 40-8.373 40-15-15.285-15-40-15" style="display:inline;opacity:1;fill:gray;fill-opacity:1;stroke:#000;stroke-width:4;stroke-linecap:round;stroke-linejoin:round;stroke-miterlimit:4;stroke-dasharray:none;stroke-dashoffset:11.33720303;stroke-opacity:1"/><path d="M113.667 48H80.334C76.652 48 72 57.553 72 73s4.652 25 8.334 25h33.333" style="display:inline;opacity:1;fill:url(#e);fill-opacity:1;stroke:#000;stroke-width:4;stroke-linecap:round;stroke-linejoin:round;stroke-miterlimit:4;stroke-dasharray:none;stroke-dashoffset:11.33720303;stroke-opacity:1"/><path d="M122 73c0-15.447-4.651-25-8.333-25s-8.333 9.553-8.333 25 4.651 25 8.333 25S122 88.447 122 73" style="display:inline;opacity:1;fill:#666;fill-opacity:1;stroke:#000;stroke-width:4;stroke-linecap:round;stroke-linejoin:round;stroke-miterlimit:4;stroke-dasharray:none;stroke-dashoffset:11.33720303;stroke-opacity:1"/><g transform="matrix(1.52163 0 0 1.52164 -4.041 .005)"><rect width="38.997" height="45.003" x="6.442" y="3.783" rx=".567" ry=".567" style="opacity:1;fill:url(#f);fill-opacity:1;fill-rule:evenodd;stroke:#888a85;stroke-width:.99999976;stroke-linecap:butt;stroke-linejoin:miter;stroke-miterlimit:4;stroke-dasharray:none;stroke-dashoffset:0;stroke-opacity:1"/><path d="M-40.94 12.286h30v2h-30z" style="color:#000;display:inline;overflow:visible;visibility:visible;opacity:1;fill:#999;fill-opacity:1;fill-rule:evenodd;stroke:none;stroke-width:1;stroke-linecap:butt;stroke-linejoin:miter;stroke-miterlimit:4;stroke-dasharray:none;stroke-dashoffset:0;stroke-opacity:1;marker:none;marker-start:none;marker-mid:none;marker-end:none" transform="scale(-1 1)"/><path d="M-40.94 18.286h30v2h-30z" style="color:#000;display:inline;overflow:visible;visibility:visible;opacity:1;fill:#999;fill-opacity:1;fill-rule:evenodd;stroke:none;stroke-width:1;stroke-linecap:butt;stroke-linejoin:miter;stroke-miterlimit:4;stroke-dasharray:none;stroke-dashoffset:0;stroke-opacity:1;marker:none;marker-start:none;marker-mid:none;marker-end:none" transform="scale(-1 1)"/><path d="M-40.94 24.286h30v2h-30z" style="color:#000;display:inline;overflow:visible;visibility:visible;opacity:1;fill:#999;fill-opacity:1;fill-rule:evenodd;stroke:none;stroke-width:1;stroke-linecap:butt;stroke-linejoin:miter;stroke-miterlimit:4;stroke-dasharray:none;stroke-dashoffset:0;stroke-opacity:1;marker:none;marker-start:none;marker-mid:none;marker-end:none" transform="scale(-1 1)"/><path d="M-40.94 30.286h30v2h-30z" style="color:#000;display:inline;overflow:visible;visibility:visible;opacity:1;fill:#999;fill-opacity:1;fill-rule:evenodd;stroke:none;stroke-width:1;stroke-linecap:butt;stroke-linejoin:miter;stroke-miterlimit:4;stroke-dasharray:none;stroke-dashoffset:0;stroke-opacity:1;marker:none;marker-start:none;marker-mid:none;marker-end:none" transform="scale(-1 1)"/><path d="M-40.94 36.286h30v2h-30z" style="color:#000;display:inline;overflow:visible;visibility:visible;opacity:1;fill:#999;fill-opacity:1;fill-rule:evenodd;stroke:none;stroke-width:1;stroke-linecap:butt;stroke-linejoin:miter;stroke-miterlimit:4;stroke-dasharray:none;stroke-dashoffset:0;stroke-opacity:1;marker:none;marker-start:none;marker-mid:none;marker-end:none" transform="scale(-1 1)"/><rect width="37.026" height="43.022" x="7.44" y="4.786" rx="0" ry="0" style="opacity:1;fill:none;fill-opacity:1;fill-rule:evenodd;stroke:#fff;stroke-width:.99999982;stroke-linecap:butt;stroke-linejoin:miter;stroke-miterlimit:4;stroke-dasharray:none;stroke-dashoffset:0;stroke-opacity:1"/></g><path d="m84.75 121.75 4.671-15.46-12.872-9.752 16.146-.334 5.297-15.257L103.3 96.2l16.147.324-12.866 9.76 4.681 15.457-13.259-9.22z" style="display:inline;opacity:1;fill:#ff0;fill-opacity:1;stroke:#000;stroke-width:2.67082047;stroke-linecap:square;stroke-linejoin:round;stroke-miterlimit:4;stroke-dasharray:none;stroke-dashoffset:11.33720303;stroke-opacity:1" transform="matrix(1.53616 0 0 1.6102 -62.54 -75.19)"/></svg>