<svg xmlns="http://www.w3.org/2000/svg" xmlns:xlink="http://www.w3.org/1999/xlink" width="128" height="128"><defs><radialGradient xlink:href="#a" id="c" cx="86" cy="86" r="37" fx="86" fy="86" gradientUnits="userSpaceOnUse"/><radialGradient xlink:href="#b" id="d" cx="39.685" cy="25.896" r="37" fx="39.685" fy="25.896" gradientUnits="userSpaceOnUse"/><linearGradient id="b"><stop offset="0" style="stop-color:#acf;stop-opacity:1"/><stop offset="1" style="stop-color:#fff;stop-opacity:0"/></linearGradient><linearGradient id="a"><stop offset="0" style="stop-color:#acf;stop-opacity:1"/><stop offset="1" style="stop-color:#06f;stop-opacity:1"/></linearGradient></defs><path d="M47 7A40 40 0 0 0 7 47a40 40 0 0 0 40 40 40 40 0 0 0 4-.242V121h70V51H86.8a40 40 0 0 0 .2-4A40 40 0 0 0 47 7" style="display:inline;opacity:1;fill:url(#c);fill-opacity:1;stroke:#000;stroke-width:4;stroke-linecap:round;stroke-linejoin:round;stroke-miterlimit:4;stroke-dasharray:none;stroke-dashoffset:11.33720303;stroke-opacity:1"/><path d="M47 7A40 40 0 0 0 7 47a40 40 0 0 0 40 40 40 40 0 0 0 4-.242V121h70V51H86.8a40 40 0 0 0 .2-4A40 40 0 0 0 47 7" style="display:inline;opacity:1;fill:url(#d);fill-opacity:1;stroke:#000;stroke-width:4;stroke-linecap:round;stroke-linejoin:round;stroke-miterlimit:4;stroke-dasharray:none;stroke-dashoffset:11.33720303;stroke-opacity:1"/></svg>