<svg xmlns="http://www.w3.org/2000/svg" xmlns:xlink="http://www.w3.org/1999/xlink" width="128" height="128"><defs><linearGradient id="a"><stop offset="0" style="stop-color:#2a7fff;stop-opacity:1"/><stop offset="1" style="stop-color:#2a7fff;stop-opacity:0"/></linearGradient><linearGradient xlink:href="#a" id="b" x1="15.692" x2="112.308" y1="63.539" y2="63.539" gradientUnits="userSpaceOnUse"/></defs><g style="opacity:1;fill:url(#b);fill-opacity:1;fill-rule:nonzero;stroke:#000;stroke-width:4;stroke-linecap:butt;stroke-linejoin:round;stroke-miterlimit:4;stroke-dasharray:none;stroke-dashoffset:0;stroke-opacity:1;paint-order:normal"><path d="M13.365 10.255V72.43l53.647-8.94V9.86ZM13.365 72.43 55.6 110.916l62.688-18.645-51.275-28.78Z" style="fill:url(#b);fill-opacity:1;fill-rule:evenodd;stroke:#000;stroke-width:4;stroke-linecap:butt;stroke-linejoin:round;stroke-miterlimit:4;stroke-dasharray:none;stroke-opacity:1;paint-order:normal"/><path d="m67.012 9.86 51.275 12.137v70.274L67.012 63.49Z" style="fill:url(#b);fill-opacity:1;fill-rule:evenodd;stroke:#000;stroke-width:4;stroke-linecap:butt;stroke-linejoin:round;stroke-miterlimit:4;stroke-dasharray:none;stroke-opacity:1;paint-order:normal"/><path d="M13.365 10.255 55.6 25.205l62.688-3.208L67.012 9.861Z" style="fill:#d5e5ff;fill-opacity:1;fill-rule:evenodd;stroke:#000;stroke-width:4;stroke-linecap:butt;stroke-linejoin:round;stroke-miterlimit:4;stroke-dasharray:none;stroke-opacity:1;paint-order:normal"/><path d="M55.599 25.206v85.71l62.688-18.645V21.997Z" style="fill:#2a7fff;fill-opacity:1;fill-rule:evenodd;stroke:#000;stroke-width:4;stroke-linecap:butt;stroke-linejoin:round;stroke-miterlimit:4;stroke-dasharray:none;stroke-opacity:1;paint-order:normal"/><path d="M13.365 10.255 55.6 25.205v85.711L13.365 72.43Z" style="fill:#acf;fill-opacity:1;fill-rule:evenodd;stroke:#000;stroke-width:4;stroke-linecap:butt;stroke-linejoin:round;stroke-miterlimit:4;stroke-dasharray:none;stroke-opacity:1;paint-order:normal"/></g><g style="fill:#fd5"><g style="fill:#fd5;stroke:#000"><path d="m70.064 422.35 374.27-374.26 107.58 107.58-374.26 374.27-129.56 21.97Z" style="fill:#fd5;stroke-width:30" transform="matrix(.11043 0 0 .11043 54.712 55.032)"/><path d="m70.569 417.81 110.61 110.61M491.47 108.37 124.78 475.05M54.222 507.26l40.975 39.546" style="fill:#fd5;stroke-width:25" transform="matrix(.11043 0 0 .11043 54.712 55.032)"/></g></g></svg>