<svg xmlns="http://www.w3.org/2000/svg" xmlns:xlink="http://www.w3.org/1999/xlink" width="128" height="128"><defs><radialGradient xlink:href="#a" id="d" cx="60.5" cy="65.228" r="16.578" fx="60.5" fy="65.228" gradientTransform="matrix(.64364 0 0 .64882 41.807 44.665)" gradientUnits="userSpaceOnUse"/><radialGradient xlink:href="#b" id="c" cx="46" cy="38.5" r="64" fx="46" fy="38.5" gradientUnits="userSpaceOnUse"/><linearGradient id="b"><stop offset="0" style="stop-color:#dbe2e3;stop-opacity:1"/><stop offset="1" style="stop-color:#6f8a91;stop-opacity:1"/></linearGradient><linearGradient id="a"><stop offset="0" style="stop-color:#d5f6ff;stop-opacity:1"/><stop offset="1" style="stop-color:#00aad4;stop-opacity:1"/></linearGradient></defs><g style="display:inline"><path d="M1.89 1.89h124.221v124.221H1.89z" style="opacity:1;fill:url(#c);fill-opacity:1;stroke:#000;stroke-width:3.77945852;stroke-linecap:round;stroke-linejoin:miter;stroke-miterlimit:4;stroke-dasharray:none;stroke-dashoffset:11.33720303;stroke-opacity:1"/><path d="m74.637 54.68-1.086.985-5.974 6.023H55.195c-1.815 0-3.686.65-4.997 1.971s-1.955 3.207-1.955 5.037v42.052c0 1.83.645 3.716 1.955 5.038 1.31 1.32 3.182 1.97 4.997 1.97h55.61c1.815 0 3.686-.65 4.997-1.97 1.31-1.322 1.955-3.208 1.955-5.038V68.696c0-1.83-.645-3.716-1.955-5.037s-3.182-1.971-4.997-1.971H98.423l-5.974-6.023-1.086-.986H76.05Z" style="line-height:normal;font-family:&quot;Bitstream Vera Sans&quot;;-inkscape-font-specification:&quot;Bitstream Vera Sans&quot;;text-indent:0;text-align:start;text-transform:none;display:inline;overflow:visible;fill:#000;stroke:#000;stroke-width:.48653507;stroke-miterlimit:4;stroke-dasharray:none;stroke-opacity:1"/><path d="M77.57 61.688h10.86l5.975 6.023 1.086.985h15.314v42.052h-55.61V68.696h15.314l1.086-.985z" style="line-height:normal;font-family:&quot;Bitstream Vera Sans&quot;;-inkscape-font-specification:&quot;Bitstream Vera Sans&quot;;text-indent:0;text-align:start;text-transform:none;display:inline;overflow:visible;fill:#ccc;stroke:#000;stroke-width:.48653507;stroke-miterlimit:4;stroke-dasharray:none;stroke-opacity:1"/><path d="M83 72.2c-9.557 0-17.378 7.887-17.378 17.522 0 9.636 7.821 17.522 17.378 17.522s17.378-7.886 17.378-17.522S92.557 72.201 83 72.201z" style="line-height:normal;font-family:&quot;Bitstream Vera Sans&quot;;-inkscape-font-specification:&quot;Bitstream Vera Sans&quot;;text-indent:0;text-align:start;text-transform:none;display:inline;overflow:visible;fill:#000;fill-opacity:1;stroke:#000;stroke-width:.48653507;stroke-miterlimit:4;stroke-dasharray:none;stroke-opacity:1"/><path d="M83 79.21c5.8 0 10.427 4.665 10.427 10.512S88.8 100.235 83 100.235 72.573 95.57 72.573 89.722 77.2 79.21 83 79.21z" style="line-height:normal;font-family:&quot;Bitstream Vera Sans&quot;;-inkscape-font-specification:&quot;Bitstream Vera Sans&quot;;text-indent:0;text-align:start;text-transform:none;display:inline;overflow:visible;fill:url(#d);fill-opacity:1;stroke:#000;stroke-width:.48653507;stroke-miterlimit:4;stroke-dasharray:none;stroke-opacity:1"/></g></svg>