<svg xmlns="http://www.w3.org/2000/svg" width="128" height="128"><path d="M44 12.038a40 60 0 0 1 40 0A40 60 0 0 1 104 64" style="display:inline;opacity:1;fill:none;fill-opacity:1;stroke:#000;stroke-width:28;stroke-linecap:round;stroke-linejoin:round;stroke-miterlimit:4;stroke-dasharray:none;stroke-dashoffset:11.33720303;stroke-opacity:1" transform="matrix(0 -1 -1 0 118 147.827)"/><path d="M61 64h86l-43 54z" style="display:inline;fill:#000;stroke:#000;stroke-width:0;stroke-linecap:butt;stroke-linejoin:miter;stroke-miterlimit:4;stroke-dasharray:none;stroke-opacity:1" transform="matrix(0 -1 -1 0 118 147.827)"/><path d="M44 12.038a40 60 0 0 1 41.492 1.359 40 60 0 0 1 18.356 55.832" style="display:inline;opacity:1;fill:none;fill-opacity:1;stroke:#ff0;stroke-width:20;stroke-linecap:round;stroke-linejoin:round;stroke-miterlimit:4;stroke-dasharray:none;stroke-dashoffset:11.33720303;stroke-opacity:1" transform="matrix(0 -1 -1 0 118 147.827)"/><path d="M69 68h70l-35 44z" style="display:inline;fill:#ff0;stroke:#000;stroke-width:0;stroke-linecap:butt;stroke-linejoin:miter;stroke-miterlimit:4;stroke-dasharray:none;stroke-opacity:1" transform="matrix(0 -1 -1 0 118 147.827)"/></svg>