solid Multi-body solid Multi-body solid created by TURBOCAD
  facet normal 0.000000e+00 0.000000e+00 0.000000e+00
    outer loop
      vertex 2.996760e+00 4.000000e+00 2.000000e-01
      vertex 4.996760e+00 -1.332270e-15 2.000000e-01
      vertex 2.996760e+00 -8.881780e-16 2.000000e-01
    endloop
  endfacet
  facet normal 0.000000e+00 0.000000e+00 0.000000e+00
    outer loop
      vertex 4.996760e+00 4.000000e+00 7.000000e-01
      vertex 4.996760e+00 -1.332270e-15 2.000000e-01
      vertex 4.996760e+00 4.000000e+00 2.000000e-01
    endloop
  endfacet
  facet normal 0.000000e+00 0.000000e+00 0.000000e+00
    outer loop
      vertex 4.996760e+00 -1.332270e-15 7.000000e-01
      vertex 2.996760e+00 -8.881780e-16 2.000000e-01
      vertex 4.996760e+00 -1.332270e-15 2.000000e-01
    endloop
  endfacet
  facet normal 0.000000e+00 0.000000e+00 0.000000e+00
    outer loop
      vertex 2.996760e+00 -8.881780e-16 7.000000e-01
      vertex 2.996760e+00 4.000000e+00 2.000000e-01
      vertex 2.996760e+00 -8.881780e-16 2.000000e-01
    endloop
  endfacet
  facet normal 0.000000e+00 0.000000e+00 0.000000e+00
    outer loop
      vertex 2.996760e+00 4.000000e+00 7.000000e-01
      vertex 4.996760e+00 4.000000e+00 2.000000e-01
      vertex 2.996760e+00 4.000000e+00 2.000000e-01
    endloop
  endfacet
  facet normal 0.000000e+00 0.000000e+00 0.000000e+00
    outer loop
      vertex 4.996760e+00 4.000000e+00 7.000000e-01
      vertex 4.996760e+00 -1.332270e-15 7.000000e-01
      vertex 4.996760e+00 -1.332270e-15 2.000000e-01
    endloop
  endfacet
  facet normal 0.000000e+00 0.000000e+00 0.000000e+00
    outer loop
      vertex 4.996760e+00 -1.332270e-15 7.000000e-01
      vertex 2.996760e+00 -8.881780e-16 7.000000e-01
      vertex 2.996760e+00 -8.881780e-16 2.000000e-01
    endloop
  endfacet
  facet normal 0.000000e+00 0.000000e+00 0.000000e+00
    outer loop
      vertex 2.996760e+00 -8.881780e-16 7.000000e-01
      vertex 2.996760e+00 4.000000e+00 7.000000e-01
      vertex 2.996760e+00 4.000000e+00 2.000000e-01
    endloop
  endfacet
  facet normal 0.000000e+00 0.000000e+00 0.000000e+00
    outer loop
      vertex 2.996760e+00 4.000000e+00 7.000000e-01
      vertex 4.996760e+00 4.000000e+00 7.000000e-01
      vertex 4.996760e+00 4.000000e+00 2.000000e-01
    endloop
  endfacet
  facet normal 0.000000e+00 0.000000e+00 0.000000e+00
    outer loop
      vertex 4.996760e+00 4.000000e+00 2.000000e-01
      vertex 2.996760e+00 4.000000e+00 2.000000e-01
      vertex 4.996760e+00 -1.332270e-15 2.000000e-01
    endloop
  endfacet
  facet normal 0.000000e+00 0.000000e+00 0.000000e+00
    outer loop
      vertex 4.996760e+00 -1.332270e-15 7.000000e-01
      vertex 4.996760e+00 4.000000e+00 7.000000e-01
      vertex 2.996760e+00 4.000000e+00 7.000000e-01
    endloop
  endfacet
  facet normal 0.000000e+00 0.000000e+00 0.000000e+00
    outer loop
      vertex 4.996760e+00 -1.332270e-15 7.000000e-01
      vertex 2.996760e+00 4.000000e+00 7.000000e-01
      vertex 2.996760e+00 -8.881780e-16 7.000000e-01
    endloop
  endfacet
  facet normal 0.000000e+00 0.000000e+00 0.000000e+00
    outer loop
      vertex 4.967580e-01 2.000000e+00 3.000000e-01
      vertex 9.966820e-01 1.499920e+00 3.000000e-01
      vertex 9.966820e-01 2.499920e+00 3.000000e-01
    endloop
  endfacet
  facet normal 0.000000e+00 0.000000e+00 0.000000e+00
    outer loop
      vertex 4.967580e-01 2.000000e+00 3.000000e-01
      vertex 9.966820e-01 2.499920e+00 2.000000e-01
      vertex 7.637156e-01 2.266955e+00 2.000000e-01
    endloop
  endfacet
  facet normal 0.000000e+00 0.000000e+00 0.000000e+00
    outer loop
      vertex 4.967580e-01 2.000000e+00 3.000000e-01
      vertex 4.967580e-01 2.000000e+00 2.000000e-01
      vertex 9.966820e-01 1.499920e+00 3.000000e-01
    endloop
  endfacet
  facet normal 0.000000e+00 0.000000e+00 0.000000e+00
    outer loop
      vertex 4.967580e-01 2.000000e+00 3.000000e-01
      vertex 9.966820e-01 2.499920e+00 3.000000e-01
      vertex 9.966820e-01 2.499920e+00 2.000000e-01
    endloop
  endfacet
  facet normal 0.000000e+00 0.000000e+00 0.000000e+00
    outer loop
      vertex 9.966820e-01 1.499920e+00 3.000000e-01
      vertex 9.966820e-01 1.499920e+00 2.000000e-01
      vertex 9.966820e-01 2.499920e+00 3.000000e-01
    endloop
  endfacet
  facet normal 0.000000e+00 0.000000e+00 0.000000e+00
    outer loop
      vertex 9.966820e-01 2.499920e+00 3.000000e-01
      vertex 9.966820e-01 1.499920e+00 2.000000e-01
      vertex 9.966820e-01 2.499920e+00 2.000000e-01
    endloop
  endfacet
  facet normal 0.000000e+00 0.000000e+00 0.000000e+00
    outer loop
      vertex 4.996760e+00 -8.881780e-16 0.000000e+00
      vertex 4.996760e+00 4.000000e+00 2.000000e-01
      vertex 4.996760e+00 -1.332270e-15 2.000000e-01
    endloop
  endfacet
  facet normal 0.000000e+00 0.000000e+00 0.000000e+00
    outer loop
      vertex 9.967580e-01 3.000000e+00 2.000000e-01
      vertex 7.411720e-01 2.965930e+00 0.000000e+00
      vertex 7.411720e-01 2.965930e+00 2.000000e-01
    endloop
  endfacet
  facet normal 0.000000e+00 0.000000e+00 0.000000e+00
    outer loop
      vertex 4.999920e-01 2.866030e+00 2.000000e-01
      vertex 7.411720e-01 2.965930e+00 0.000000e+00
      vertex 4.999920e-01 2.866030e+00 0.000000e+00
    endloop
  endfacet
  facet normal 0.000000e+00 0.000000e+00 0.000000e+00
    outer loop
      vertex 1.323570e-01 2.497210e+00 2.000000e-01
      vertex 3.406870e-02 2.258830e+00 0.000000e+00
      vertex 3.406870e-02 2.258830e+00 2.000000e-01
    endloop
  endfacet
  facet normal 0.000000e+00 0.000000e+00 0.000000e+00
    outer loop
      vertex -2.319440e-08 1.996780e+00 2.000000e-01
      vertex 3.406870e-02 1.741190e+00 0.000000e+00
      vertex 3.406870e-02 1.741190e+00 2.000000e-01
    endloop
  endfacet
  facet normal 0.000000e+00 0.000000e+00 0.000000e+00
    outer loop
      vertex 1.355890e-01 1.497220e+00 2.000000e-01
      vertex 2.928860e-01 1.292910e+00 0.000000e+00
      vertex 2.928860e-01 1.292910e+00 2.000000e-01
    endloop
  endfacet
  facet normal 0.000000e+00 0.000000e+00 0.000000e+00
    outer loop
      vertex 7.411720e-01 1.034090e+00 2.000000e-01
      vertex 5.027940e-01 1.132380e+00 0.000000e+00
      vertex 7.411720e-01 1.034090e+00 0.000000e+00
    endloop
  endfacet
  facet normal 0.000000e+00 0.000000e+00 0.000000e+00
    outer loop
      vertex 4.996760e+00 4.000000e+00 0.000000e+00
      vertex 2.996760e+00 4.000000e+00 2.000000e-01
      vertex 4.996760e+00 4.000000e+00 2.000000e-01
    endloop
  endfacet
  facet normal 0.000000e+00 0.000000e+00 0.000000e+00
    outer loop
      vertex 2.996760e+00 4.000000e+00 0.000000e+00
      vertex 9.967580e-01 3.000000e+00 2.000000e-01
      vertex 2.996760e+00 4.000000e+00 2.000000e-01
    endloop
  endfacet
  facet normal 0.000000e+00 0.000000e+00 0.000000e+00
    outer loop
      vertex 9.999900e-01 1.000020e+00 0.000000e+00
      vertex 2.996760e+00 -8.881780e-16 2.000000e-01
      vertex 1.003220e+00 1.000020e+00 2.000000e-01
    endloop
  endfacet
  facet normal 0.000000e+00 0.000000e+00 0.000000e+00
    outer loop
      vertex 2.996760e+00 -4.440890e-16 0.000000e+00
      vertex 4.996760e+00 -1.332270e-15 2.000000e-01
      vertex 2.996760e+00 -8.881780e-16 2.000000e-01
    endloop
  endfacet
  facet normal 0.000000e+00 0.000000e+00 0.000000e+00
    outer loop
      vertex 9.967580e-01 3.000000e+00 2.000000e-01
      vertex 9.967580e-01 3.000000e+00 0.000000e+00
      vertex 7.411720e-01 2.965930e+00 0.000000e+00
    endloop
  endfacet
  facet normal 0.000000e+00 0.000000e+00 0.000000e+00
    outer loop
      vertex 4.999920e-01 2.866030e+00 2.000000e-01
      vertex 7.411720e-01 2.965930e+00 2.000000e-01
      vertex 7.411720e-01 2.965930e+00 0.000000e+00
    endloop
  endfacet
  facet normal 0.000000e+00 0.000000e+00 0.000000e+00
    outer loop
      vertex 4.999920e-01 2.866030e+00 0.000000e+00
      vertex 2.928860e-01 2.707110e+00 2.000000e-01
      vertex 4.999920e-01 2.866030e+00 2.000000e-01
    endloop
  endfacet
  facet normal 0.000000e+00 0.000000e+00 0.000000e+00
    outer loop
      vertex 2.906050e-01 2.704820e+00 0.000000e+00
      vertex 1.339690e-01 2.500010e+00 0.000000e+00
      vertex 1.323570e-01 2.497210e+00 2.000000e-01
    endloop
  endfacet
  facet normal 0.000000e+00 0.000000e+00 0.000000e+00
    outer loop
      vertex 2.906050e-01 2.704820e+00 0.000000e+00
      vertex 1.323570e-01 2.497210e+00 2.000000e-01
      vertex 2.928860e-01 2.707110e+00 2.000000e-01
    endloop
  endfacet
  facet normal 0.000000e+00 0.000000e+00 0.000000e+00
    outer loop
      vertex 1.339690e-01 2.500010e+00 0.000000e+00
      vertex 3.406870e-02 2.258830e+00 0.000000e+00
      vertex 1.323570e-01 2.497210e+00 2.000000e-01
    endloop
  endfacet
  facet normal 0.000000e+00 0.000000e+00 0.000000e+00
    outer loop
      vertex -2.319440e-08 1.996780e+00 0.000000e+00
      vertex 3.406870e-02 1.741190e+00 0.000000e+00
      vertex -2.319440e-08 1.996780e+00 2.000000e-01
    endloop
  endfacet
  facet normal 0.000000e+00 0.000000e+00 0.000000e+00
    outer loop
      vertex 3.406870e-02 2.258830e+00 0.000000e+00
      vertex -2.319440e-08 1.996780e+00 2.000000e-01
      vertex 3.406870e-02 2.258830e+00 2.000000e-01
    endloop
  endfacet
  facet normal 0.000000e+00 0.000000e+00 0.000000e+00
    outer loop
      vertex 3.406870e-02 1.741190e+00 0.000000e+00
      vertex 1.339690e-01 1.500010e+00 0.000000e+00
      vertex 1.355890e-01 1.497220e+00 2.000000e-01
    endloop
  endfacet
  facet normal 0.000000e+00 0.000000e+00 0.000000e+00
    outer loop
      vertex 3.406870e-02 1.741190e+00 0.000000e+00
      vertex 1.355890e-01 1.497220e+00 2.000000e-01
      vertex 3.406870e-02 1.741190e+00 2.000000e-01
    endloop
  endfacet
  facet normal 0.000000e+00 0.000000e+00 0.000000e+00
    outer loop
      vertex 1.339690e-01 1.500010e+00 0.000000e+00
      vertex 2.928860e-01 1.292910e+00 0.000000e+00
      vertex 1.355890e-01 1.497220e+00 2.000000e-01
    endloop
  endfacet
  facet normal 0.000000e+00 0.000000e+00 0.000000e+00
    outer loop
      vertex 7.411720e-01 1.034090e+00 2.000000e-01
      vertex 5.027940e-01 1.132380e+00 2.000000e-01
      vertex 5.027940e-01 1.132380e+00 0.000000e+00
    endloop
  endfacet
  facet normal 0.000000e+00 0.000000e+00 0.000000e+00
    outer loop
      vertex 2.928860e-01 1.292910e+00 0.000000e+00
      vertex 5.027940e-01 1.132380e+00 2.000000e-01
      vertex 2.928860e-01 1.292910e+00 2.000000e-01
    endloop
  endfacet
  facet normal 0.000000e+00 0.000000e+00 0.000000e+00
    outer loop
      vertex 7.411720e-01 1.034090e+00 0.000000e+00
      vertex 9.999900e-01 1.000020e+00 0.000000e+00
      vertex 1.003220e+00 1.000020e+00 2.000000e-01
    endloop
  endfacet
  facet normal 0.000000e+00 0.000000e+00 0.000000e+00
    outer loop
      vertex 7.411720e-01 1.034090e+00 0.000000e+00
      vertex 1.003220e+00 1.000020e+00 2.000000e-01
      vertex 7.411720e-01 1.034090e+00 2.000000e-01
    endloop
  endfacet
  facet normal 0.000000e+00 0.000000e+00 0.000000e+00
    outer loop
      vertex 2.996760e+00 4.000000e+00 2.000000e-01
      vertex 9.967580e-01 3.000000e+00 2.000000e-01
      vertex 1.003220e+00 1.000020e+00 2.000000e-01
    endloop
  endfacet
  facet normal 0.000000e+00 0.000000e+00 0.000000e+00
    outer loop
      vertex 2.996760e+00 4.000000e+00 2.000000e-01
      vertex 1.003220e+00 1.000020e+00 2.000000e-01
      vertex 2.996760e+00 -8.881780e-16 2.000000e-01
    endloop
  endfacet
  facet normal 0.000000e+00 0.000000e+00 0.000000e+00
    outer loop
      vertex 9.967580e-01 3.000000e+00 2.000000e-01
      vertex 7.411720e-01 2.965930e+00 2.000000e-01
      vertex 7.637156e-01 2.266955e+00 2.000000e-01
    endloop
  endfacet
  facet normal 0.000000e+00 0.000000e+00 0.000000e+00
    outer loop
      vertex 9.967580e-01 3.000000e+00 2.000000e-01
      vertex 7.637156e-01 2.266955e+00 2.000000e-01
      vertex 9.966820e-01 2.499920e+00 2.000000e-01
    endloop
  endfacet
  facet normal 0.000000e+00 0.000000e+00 0.000000e+00
    outer loop
      vertex 4.999920e-01 2.866030e+00 2.000000e-01
      vertex 2.928860e-01 2.707110e+00 2.000000e-01
      vertex 2.928860e-01 1.292910e+00 2.000000e-01
    endloop
  endfacet
  facet normal 0.000000e+00 0.000000e+00 0.000000e+00
    outer loop
      vertex 2.928860e-01 2.707110e+00 2.000000e-01
      vertex 1.323570e-01 2.497210e+00 2.000000e-01
      vertex 1.355890e-01 1.497220e+00 2.000000e-01
    endloop
  endfacet
  facet normal 0.000000e+00 0.000000e+00 0.000000e+00
    outer loop
      vertex 2.928860e-01 2.707110e+00 2.000000e-01
      vertex 1.355890e-01 1.497220e+00 2.000000e-01
      vertex 2.928860e-01 1.292910e+00 2.000000e-01
    endloop
  endfacet
  facet normal 0.000000e+00 0.000000e+00 0.000000e+00
    outer loop
      vertex 3.406870e-02 1.741190e+00 2.000000e-01
      vertex 3.406870e-02 2.258830e+00 2.000000e-01
      vertex -2.319440e-08 1.996780e+00 2.000000e-01
    endloop
  endfacet
  facet normal 0.000000e+00 0.000000e+00 0.000000e+00
    outer loop
      vertex 3.406870e-02 2.258830e+00 2.000000e-01
      vertex 3.406870e-02 1.741190e+00 2.000000e-01
      vertex 1.323570e-01 2.497210e+00 2.000000e-01
    endloop
  endfacet
  facet normal 0.000000e+00 0.000000e+00 0.000000e+00
    outer loop
      vertex 1.355890e-01 1.497220e+00 2.000000e-01
      vertex 1.323570e-01 2.497210e+00 2.000000e-01
      vertex 3.406870e-02 1.741190e+00 2.000000e-01
    endloop
  endfacet
  facet normal 0.000000e+00 0.000000e+00 0.000000e+00
    outer loop
      vertex 4.996760e+00 4.000000e+00 0.000000e+00
      vertex 2.996760e+00 4.000000e+00 0.000000e+00
      vertex 2.996760e+00 4.000000e+00 2.000000e-01
    endloop
  endfacet
  facet normal 0.000000e+00 0.000000e+00 0.000000e+00
    outer loop
      vertex 2.996760e+00 4.000000e+00 0.000000e+00
      vertex 9.967580e-01 3.000000e+00 0.000000e+00
      vertex 9.967580e-01 3.000000e+00 2.000000e-01
    endloop
  endfacet
  facet normal 0.000000e+00 0.000000e+00 0.000000e+00
    outer loop
      vertex 9.999900e-01 1.000020e+00 0.000000e+00
      vertex 2.996760e+00 -4.440890e-16 0.000000e+00
      vertex 2.996760e+00 -8.881780e-16 2.000000e-01
    endloop
  endfacet
  facet normal 0.000000e+00 0.000000e+00 0.000000e+00
    outer loop
      vertex 2.996760e+00 -4.440890e-16 0.000000e+00
      vertex 4.996760e+00 -8.881780e-16 0.000000e+00
      vertex 4.996760e+00 -1.332270e-15 2.000000e-01
    endloop
  endfacet
  facet normal 0.000000e+00 0.000000e+00 0.000000e+00
    outer loop
      vertex 4.996760e+00 -8.881780e-16 0.000000e+00
      vertex 4.996760e+00 4.000000e+00 0.000000e+00
      vertex 4.996760e+00 4.000000e+00 2.000000e-01
    endloop
  endfacet
  facet normal 0.000000e+00 0.000000e+00 0.000000e+00
    outer loop
      vertex 9.999900e-01 1.000020e+00 0.000000e+00
      vertex 7.411720e-01 1.034090e+00 0.000000e+00
      vertex 5.027940e-01 1.132380e+00 0.000000e+00
    endloop
  endfacet
  facet normal 0.000000e+00 0.000000e+00 0.000000e+00
    outer loop
      vertex 9.999900e-01 1.000020e+00 0.000000e+00
      vertex 5.027940e-01 1.132380e+00 0.000000e+00
      vertex 2.928860e-01 1.292910e+00 0.000000e+00
    endloop
  endfacet
  facet normal 0.000000e+00 0.000000e+00 0.000000e+00
    outer loop
      vertex 9.999900e-01 1.000020e+00 0.000000e+00
      vertex 2.928860e-01 1.292910e+00 0.000000e+00
      vertex 1.339690e-01 1.500010e+00 0.000000e+00
    endloop
  endfacet
  facet normal 0.000000e+00 0.000000e+00 0.000000e+00
    outer loop
      vertex 9.999900e-01 1.000020e+00 0.000000e+00
      vertex 1.339690e-01 1.500010e+00 0.000000e+00
      vertex 3.406870e-02 1.741190e+00 0.000000e+00
    endloop
  endfacet
  facet normal 0.000000e+00 0.000000e+00 0.000000e+00
    outer loop
      vertex 9.999900e-01 1.000020e+00 0.000000e+00
      vertex 3.406870e-02 1.741190e+00 0.000000e+00
      vertex -2.319440e-08 1.996780e+00 0.000000e+00
    endloop
  endfacet
  facet normal 0.000000e+00 0.000000e+00 0.000000e+00
    outer loop
      vertex 9.999900e-01 1.000020e+00 0.000000e+00
      vertex -2.319440e-08 1.996780e+00 0.000000e+00
      vertex 3.406870e-02 2.258830e+00 0.000000e+00
    endloop
  endfacet
  facet normal 0.000000e+00 0.000000e+00 0.000000e+00
    outer loop
      vertex 9.999900e-01 1.000020e+00 0.000000e+00
      vertex 3.406870e-02 2.258830e+00 0.000000e+00
      vertex 1.339690e-01 2.500010e+00 0.000000e+00
    endloop
  endfacet
  facet normal 0.000000e+00 0.000000e+00 0.000000e+00
    outer loop
      vertex 9.999900e-01 1.000020e+00 0.000000e+00
      vertex 1.339690e-01 2.500010e+00 0.000000e+00
      vertex 2.906050e-01 2.704820e+00 0.000000e+00
    endloop
  endfacet
  facet normal 0.000000e+00 0.000000e+00 0.000000e+00
    outer loop
      vertex 9.999900e-01 1.000020e+00 0.000000e+00
      vertex 2.906050e-01 2.704820e+00 0.000000e+00
      vertex 4.999920e-01 2.866030e+00 0.000000e+00
    endloop
  endfacet
  facet normal 0.000000e+00 0.000000e+00 0.000000e+00
    outer loop
      vertex 9.999900e-01 1.000020e+00 0.000000e+00
      vertex 4.999920e-01 2.866030e+00 0.000000e+00
      vertex 7.411720e-01 2.965930e+00 0.000000e+00
    endloop
  endfacet
  facet normal 0.000000e+00 0.000000e+00 0.000000e+00
    outer loop
      vertex 9.999900e-01 1.000020e+00 0.000000e+00
      vertex 7.411720e-01 2.965930e+00 0.000000e+00
      vertex 9.967580e-01 3.000000e+00 0.000000e+00
    endloop
  endfacet
  facet normal 0.000000e+00 0.000000e+00 0.000000e+00
    outer loop
      vertex 9.999900e-01 1.000020e+00 0.000000e+00
      vertex 9.967580e-01 3.000000e+00 0.000000e+00
      vertex 2.996760e+00 4.000000e+00 0.000000e+00
    endloop
  endfacet
  facet normal 0.000000e+00 0.000000e+00 0.000000e+00
    outer loop
      vertex 9.999900e-01 1.000020e+00 0.000000e+00
      vertex 2.996760e+00 4.000000e+00 0.000000e+00
      vertex 4.996760e+00 4.000000e+00 0.000000e+00
    endloop
  endfacet
  facet normal 0.000000e+00 0.000000e+00 0.000000e+00
    outer loop
      vertex 9.999900e-01 1.000020e+00 0.000000e+00
      vertex 4.996760e+00 4.000000e+00 0.000000e+00
      vertex 4.996760e+00 -8.881780e-16 0.000000e+00
    endloop
  endfacet
  facet normal 0.000000e+00 0.000000e+00 0.000000e+00
    outer loop
      vertex 9.999900e-01 1.000020e+00 0.000000e+00
      vertex 4.996760e+00 -8.881780e-16 0.000000e+00
      vertex 2.996760e+00 -4.440890e-16 0.000000e+00
    endloop
  endfacet
  facet normal 0.000000e+00 0.000000e+00 0.000000e+00
    outer loop
      vertex 9.966820e-01 1.499920e+00 3.000000e-01
      vertex 7.215310e-01 1.775157e+00 2.000000e-01
      vertex 9.966820e-01 1.499920e+00 2.000000e-01
    endloop
  endfacet
  facet normal 0.000000e+00 0.000000e+00 0.000000e+00
    outer loop
      vertex 4.967580e-01 2.000000e+00 3.000000e-01
      vertex 7.637156e-01 2.266955e+00 2.000000e-01
      vertex 4.967580e-01 2.000000e+00 2.000000e-01
    endloop
  endfacet
  facet normal 0.000000e+00 0.000000e+00 0.000000e+00
    outer loop
      vertex 9.966820e-01 2.499920e+00 2.000000e-01
      vertex 9.966820e-01 1.499920e+00 2.000000e-01
      vertex 7.637156e-01 2.266955e+00 2.000000e-01
    endloop
  endfacet
  facet normal 0.000000e+00 0.000000e+00 0.000000e+00
    outer loop
      vertex 7.215310e-01 1.775157e+00 2.000000e-01
      vertex 7.637156e-01 2.266955e+00 2.000000e-01
      vertex 9.966820e-01 1.499920e+00 2.000000e-01
    endloop
  endfacet
  facet normal 0.000000e+00 0.000000e+00 0.000000e+00
    outer loop
      vertex 4.999920e-01 2.866030e+00 0.000000e+00
      vertex 2.906050e-01 2.704820e+00 0.000000e+00
      vertex 2.928860e-01 2.707110e+00 2.000000e-01
    endloop
  endfacet
  facet normal 0.000000e+00 0.000000e+00 0.000000e+00
    outer loop
      vertex 3.406870e-02 2.258830e+00 0.000000e+00
      vertex -2.319440e-08 1.996780e+00 0.000000e+00
      vertex -2.319440e-08 1.996780e+00 2.000000e-01
    endloop
  endfacet
  facet normal 0.000000e+00 0.000000e+00 0.000000e+00
    outer loop
      vertex 2.928860e-01 1.292910e+00 0.000000e+00
      vertex 5.027940e-01 1.132380e+00 0.000000e+00
      vertex 5.027940e-01 1.132380e+00 2.000000e-01
    endloop
  endfacet
  facet normal 0.000000e+00 0.000000e+00 0.000000e+00
    outer loop
      vertex 9.966820e-01 1.499920e+00 2.000000e-01
      vertex 7.411720e-01 1.034090e+00 2.000000e-01
      vertex 1.003220e+00 1.000020e+00 2.000000e-01
    endloop
  endfacet
  facet normal 0.000000e+00 0.000000e+00 0.000000e+00
    outer loop
      vertex 7.215310e-01 1.775157e+00 2.000000e-01
      vertex 7.411720e-01 1.034090e+00 2.000000e-01
      vertex 9.966820e-01 1.499920e+00 2.000000e-01
    endloop
  endfacet
  facet normal 0.000000e+00 0.000000e+00 0.000000e+00
    outer loop
      vertex 7.411720e-01 2.965930e+00 2.000000e-01
      vertex 4.999920e-01 2.866030e+00 2.000000e-01
      vertex 7.637156e-01 2.266955e+00 2.000000e-01
    endloop
  endfacet
  facet normal 0.000000e+00 0.000000e+00 0.000000e+00
    outer loop
      vertex 4.999920e-01 2.866030e+00 2.000000e-01
      vertex 4.967580e-01 2.000000e+00 2.000000e-01
      vertex 7.637156e-01 2.266955e+00 2.000000e-01
    endloop
  endfacet
  facet normal 0.000000e+00 0.000000e+00 0.000000e+00
    outer loop
      vertex 5.027940e-01 1.132380e+00 2.000000e-01
      vertex 7.411720e-01 1.034090e+00 2.000000e-01
      vertex 7.215310e-01 1.775157e+00 2.000000e-01
    endloop
  endfacet
  facet normal 0.000000e+00 0.000000e+00 0.000000e+00
    outer loop
      vertex 4.999920e-01 2.866030e+00 2.000000e-01
      vertex 2.928860e-01 1.292910e+00 2.000000e-01
      vertex 4.967580e-01 2.000000e+00 2.000000e-01
    endloop
  endfacet
  facet normal 0.000000e+00 0.000000e+00 0.000000e+00
    outer loop
      vertex 4.967580e-01 2.000000e+00 2.000000e-01
      vertex 2.928860e-01 1.292910e+00 2.000000e-01
      vertex 5.027940e-01 1.132380e+00 2.000000e-01
    endloop
  endfacet
  facet normal 0.000000e+00 0.000000e+00 0.000000e+00
    outer loop
      vertex 9.966820e-01 1.499920e+00 3.000000e-01
      vertex 4.967580e-01 2.000000e+00 2.000000e-01
      vertex 7.215310e-01 1.775157e+00 2.000000e-01
    endloop
  endfacet
  facet normal 0.000000e+00 0.000000e+00 0.000000e+00
    outer loop
      vertex 7.637156e-01 2.266955e+00 2.000000e-01
      vertex 7.215310e-01 1.775157e+00 2.000000e-01
      vertex 4.967580e-01 2.000000e+00 2.000000e-01
    endloop
  endfacet
  facet normal 0.000000e+00 0.000000e+00 0.000000e+00
    outer loop
      vertex 7.215310e-01 1.775157e+00 2.000000e-01
      vertex 4.967580e-01 2.000000e+00 2.000000e-01
      vertex 5.027940e-01 1.132380e+00 2.000000e-01
    endloop
  endfacet
  facet normal 0.000000e+00 0.000000e+00 0.000000e+00
    outer loop
      vertex 9.966820e-01 2.499920e+00 2.000000e-01
      vertex 9.966820e-01 1.499920e+00 2.000000e-01
      vertex 9.967580e-01 3.000000e+00 2.000000e-01
    endloop
  endfacet
  facet normal 0.000000e+00 0.000000e+00 0.000000e+00
    outer loop
      vertex 9.967580e-01 3.000000e+00 2.000000e-01
      vertex 9.966820e-01 1.499920e+00 2.000000e-01
      vertex 1.003220e+00 1.000020e+00 2.000000e-01
    endloop
  endfacet
endsolid
